<svg width="44" height="29" viewBox="0 0 44 29" fill="none" xmlns="http://www.w3.org/2000/svg">
<path d="M21.9125 0.732422C14.8051 0.732422 7.72052 2.69114 2.98292 6.45425C3.00715 7.9397 3.17111 10.1419 3.94893 11.4468C15.4013 5.20109 28.4237 5.20109 39.8761 11.4468C40.6538 10.1419 40.8179 7.9397 40.8421 6.45425C36.1045 2.69114 29.0199 0.732422 21.9125 0.732422ZM42.596 8.60551C42.5624 8.91399 42.5216 9.22867 42.467 9.54564C42.2366 10.8841 41.8238 12.2845 40.8118 13.2701C39.3174 15.1994 36.5877 16.4234 33.2698 17.2661C29.9075 18.1203 25.9116 18.5371 21.9125 18.5371C17.9134 18.5371 13.9175 18.1201 10.5553 17.2662C7.25243 16.4274 4.53379 15.2096 3.0351 13.2954C1.79467 12.0551 1.35462 10.3156 1.19562 8.7555C-0.225647 11.5769 0.00488275 15.1861 1.26519 18.9671C2.74463 23.4054 8.89532 28.2676 21.9124 28.2676C34.9295 28.2676 41.0804 23.4054 42.5598 18.9671L42.5702 18.9364L42.5826 18.9067C44.1492 15.1064 44.1984 11.4553 42.596 8.60551Z" fill="#1E1E1E"/>
</svg>
