<svg width="21" height="22" viewBox="0 0 21 22" fill="none" xmlns="http://www.w3.org/2000/svg">
<path d="M10.468 0C15.991 0 20.468 4.477 20.468 10C20.468 15.523 15.991 20 10.468 20C4.94502 20 0.468018 15.523 0.468018 10C0.468018 4.477 4.94502 0 10.468 0ZM10.468 2C8.34629 2 6.31145 2.84285 4.81116 4.34315C3.31087 5.84344 2.46802 7.87827 2.46802 10C2.46802 12.1217 3.31087 14.1566 4.81116 15.6569C6.31145 17.1571 8.34629 18 10.468 18C12.5897 18 14.6246 17.1571 16.1249 15.6569C17.6252 14.1566 18.468 12.1217 18.468 10C18.468 7.87827 17.6252 5.84344 16.1249 4.34315C14.6246 2.84285 12.5897 2 10.468 2ZM10.468 4C10.713 4.00003 10.9494 4.08996 11.1324 4.25272C11.3154 4.41547 11.4324 4.63975 11.461 4.883L11.468 5V9.586L14.175 12.293C14.3544 12.473 14.4585 12.7144 14.4662 12.9684C14.474 13.2223 14.3848 13.4697 14.2168 13.6603C14.0487 13.8508 13.8145 13.9703 13.5615 13.9944C13.3086 14.0185 13.056 13.9454 12.855 13.79L12.761 13.707L9.76102 10.707C9.6056 10.5514 9.50578 10.349 9.47702 10.131L9.46802 10V5C9.46802 4.73478 9.57337 4.48043 9.76091 4.29289C9.94845 4.10536 10.2028 4 10.468 4Z" fill="#10B821"/>
</svg>
