<svg width="55" height="54" viewBox="0 0 55 54" fill="none" xmlns="http://www.w3.org/2000/svg">
<path d="M26.343 45L37.278 23.1075H29.718V9L18.468 30.8925H26.343V45ZM27.468 4.5C33.6555 4.5 38.943 6.75 43.3305 11.1375C47.718 15.525 49.968 20.8125 49.968 27C49.968 33.1875 47.718 38.475 43.3305 42.8625C38.943 47.25 33.6555 49.5 27.468 49.5C21.2805 49.5 15.993 47.25 11.6055 42.8625C7.21802 38.475 4.96802 33.1875 4.96802 27C4.96802 20.8125 7.21802 15.525 11.6055 11.1375C15.993 6.75 21.2805 4.5 27.468 4.5Z" fill="#523F87"/>
</svg>
