<svg width="39" height="38" viewBox="0 0 39 38" fill="none" xmlns="http://www.w3.org/2000/svg">
<path d="M19.4696 7.17092C21.279 5.55221 23.6395 4.68767 26.0664 4.7548C28.4932 4.82193 30.8023 5.81566 32.5195 7.53192C34.2348 9.24697 35.2291 11.5532 35.2985 13.9778C35.368 16.4024 34.5074 18.7618 32.8931 20.5723L19.4665 34.0179L6.04297 20.5723C4.42679 18.7609 3.56537 16.3995 3.63557 13.9729C3.70576 11.5463 4.70224 9.23868 6.42043 7.52374C8.13861 5.80879 10.4481 4.81667 12.8748 4.75106C15.3015 4.68545 17.6613 5.55133 19.4696 7.17092ZM30.2775 9.76917C29.1333 8.62691 27.5955 7.96548 25.9794 7.92044C24.3632 7.8754 22.791 8.45016 21.585 9.52692L19.4712 11.4238L17.3559 9.52851C16.1552 8.45484 14.5905 7.87898 12.9803 7.91813C11.37 7.95728 9.83521 8.60849 8.68812 9.73924C7.54103 10.87 6.86787 12.3953 6.80562 14.0048C6.74337 15.6144 7.29672 17.1871 8.35305 18.4031L19.4681 29.5355L30.5831 18.4047C31.6349 17.1941 32.1884 15.6295 32.1317 14.0267C32.075 12.424 31.4123 10.9024 30.2775 9.76917Z" fill="#1E1E1E"/>
</svg>
