<svg width="27" height="27" viewBox="0 0 27 27" fill="none" xmlns="http://www.w3.org/2000/svg">
<path d="M7.4 18.1205C7.71826 18.0286 8.06036 18.0656 8.35104 18.2234C8.64172 18.3813 8.85717 18.647 8.95 18.9621C9.04283 19.2773 9.00542 19.616 8.84602 19.9039C8.68661 20.1917 8.41826 20.405 8.1 20.4969C7.475 20.6776 7.025 20.8683 6.73625 21.0415C7.03375 21.2185 7.50375 21.4166 8.15625 21.601C9.6 22.0095 11.6663 22.2793 14 22.2793C16.3337 22.2793 18.4 22.0095 19.8437 21.601C20.4975 21.4166 20.9663 21.2185 21.2638 21.0415C20.9763 20.8683 20.5263 20.6776 19.9013 20.4969C19.588 20.401 19.3254 20.187 19.17 19.9011C19.0146 19.6152 18.9789 19.2802 19.0705 18.9685C19.1622 18.6568 19.3739 18.3932 19.66 18.2345C19.9461 18.0759 20.2837 18.0349 20.6 18.1205C21.435 18.3618 22.2 18.6713 22.7875 19.0686C23.3313 19.4387 24 20.0835 24 21.0415C24 22.0107 23.315 22.6605 22.7625 23.0306C22.165 23.4291 21.3838 23.7398 20.53 23.9812C18.8075 24.4701 16.5 24.7548 14 24.7548C11.5 24.7548 9.1925 24.4701 7.47 23.9812C6.61625 23.7398 5.835 23.4291 5.2375 23.0306C4.685 22.6593 4 22.0107 4 21.0415C4 20.0835 4.66875 19.4387 5.2125 19.0686C5.8 18.6713 6.565 18.3618 7.4 18.1205ZM14 0C16.4864 0 18.871 0.978031 20.6291 2.71894C22.3873 4.45984 23.375 6.82102 23.375 9.28303C23.375 12.4615 21.625 15.0459 19.8125 16.8827C19.092 17.6055 18.3177 18.2737 17.4963 18.8817C16.7537 19.4337 15.0563 20.4685 15.0563 20.4685C14.7343 20.6497 14.3703 20.7449 14 20.7449C13.6297 20.7449 13.2657 20.6497 12.9437 20.4685C12.1013 19.9848 11.2867 19.455 10.5037 18.8817C9.68104 18.2752 8.90668 17.6069 8.1875 16.8827C6.375 15.0459 4.625 12.4615 4.625 9.28303C4.625 6.82102 5.61272 4.45984 7.37087 2.71894C9.12903 0.978031 11.5136 0 14 0ZM14 6.80756C13.337 6.80756 12.7011 7.06837 12.2322 7.53261C11.7634 7.99685 11.5 8.6265 11.5 9.28303C11.5 9.93957 11.7634 10.5692 12.2322 11.0335C12.7011 11.4977 13.337 11.7585 14 11.7585C14.663 11.7585 15.2989 11.4977 15.7678 11.0335C16.2366 10.5692 16.5 9.93957 16.5 9.28303C16.5 8.6265 16.2366 7.99685 15.7678 7.53261C15.2989 7.06837 14.663 6.80756 14 6.80756Z" fill="#1D11A4"/>
</svg>
