<svg width="70" height="70" viewBox="0 0 70 70" fill="none" xmlns="http://www.w3.org/2000/svg">
<rect width="70" height="70" rx="35" fill="#CBCCCB" fill-opacity="0.3"/>
<path d="M12.704 14.5688L12.7038 14.5701C34.1574 17.7494 44.6643 29.178 46.8485 38.4616C46.6685 38.9753 46.4621 39.4107 46.2411 39.7479C44.7552 42.0152 40.8681 43.1919 37.5052 42.2054C38.0194 40.5081 38.3759 38.7822 38.5424 37.1248C30.3389 37.8275 20.2769 37.8484 12.6575 35.179C16.2434 43.3703 21.1932 49.3127 26.8357 54.9515C28.408 54.7655 29.9129 53.9761 31.2904 52.7712C38.6139 55.7504 47.4524 52.5517 50.7766 47.5566C54.809 41.498 57.142 20.2697 36.3853 14.5689H31.0071C44.7851 19.2847 47.8276 28.9841 47.4704 35.1106C44.2778 27.0645 35.6385 18.623 20.6253 14.5689H12.7041L12.704 14.5688Z" fill="#BA5959"/>
</svg>
