<svg width="56" height="55" viewBox="0 0 56 55" fill="none" xmlns="http://www.w3.org/2000/svg">
<path d="M27.9998 22.9167L18.8332 10.0834L22.4998 4.58337H33.4998L37.1665 10.0834L27.9998 22.9167ZM36.0207 15.5834L33.2707 19.4792C38.3123 21.5417 41.7498 26.3542 41.7498 32.0834C41.7498 35.7301 40.3012 39.2275 37.7226 41.8061C35.1439 44.3847 31.6466 45.8334 27.9998 45.8334C24.3531 45.8334 20.8557 44.3847 18.2771 41.8061C15.6985 39.2275 14.2498 35.7301 14.2498 32.0834C14.2498 26.3542 17.6873 21.5417 22.729 19.4792L19.979 15.5834C13.7915 18.5625 9.6665 24.75 9.6665 32.0834C9.6665 36.9457 11.598 41.6088 15.0362 45.047C18.4744 48.4852 23.1375 50.4167 27.9998 50.4167C32.8621 50.4167 37.5253 48.4852 40.9635 45.047C44.4016 41.6088 46.3332 36.9457 46.3332 32.0834C46.3332 24.75 42.2082 18.5625 36.0207 15.5834Z" fill="#1E1E1E"/>
</svg>
