<svg width="34" height="33" viewBox="0 0 34 33" fill="none" xmlns="http://www.w3.org/2000/svg">
<g clip-path="url(#clip0_435_846)">
<path fill-rule="evenodd" clip-rule="evenodd" d="M16.6883 0.144845C16.8545 0.0499257 17.0425 0 17.2339 0C17.4253 0 17.6133 0.0499257 17.7795 0.144845L33.1795 8.94485C33.3478 9.04102 33.4878 9.17998 33.5852 9.34765C33.6825 9.51533 33.7338 9.70576 33.7339 9.89965V11.4836C33.7339 16.3368 32.1529 21.0578 29.2301 24.9321C26.3073 28.8064 22.2019 31.6231 17.5353 32.9556C17.3383 33.0118 17.1295 33.0118 16.9325 32.9556C12.2659 31.6231 8.16045 28.8064 5.23766 24.9321C2.31486 21.0578 0.733826 16.3368 0.733887 11.4836L0.733887 9.89965C0.733949 9.70576 0.785259 9.51533 0.882619 9.34765C0.979978 9.17998 1.11993 9.04102 1.28829 8.94485L16.6883 0.144845ZM16.2923 23.5638L25.7919 11.686L24.0759 10.3132L15.9755 20.4354L10.2379 15.6548L8.82989 17.3444L16.2923 23.5638Z" fill="#0B9519"/>
</g>
<defs>
<clipPath id="clip0_435_846">
<rect width="33" height="33" fill="white" transform="translate(0.733887)"/>
</clipPath>
</defs>
</svg>
