<svg width="32" height="34" viewBox="0 0 32 34" fill="none" xmlns="http://www.w3.org/2000/svg">
<path d="M22.7883 1.00938C23.7332 0.464114 24.8122 0.194766 25.9025 0.231933C26.9929 0.2691 28.0509 0.61129 28.9566 1.21964C29.8622 1.82799 30.579 2.67811 31.0257 3.67345C31.4724 4.66879 31.6311 5.76944 31.4836 6.85041C31.3361 7.93138 30.8884 8.94932 30.1915 9.78863C29.4945 10.6279 28.5761 11.255 27.5406 11.5985C26.5051 11.942 25.394 11.9883 24.3336 11.732C23.2731 11.4757 22.3058 10.9272 21.5414 10.1488L12.3831 15.4367C12.526 15.9549 12.5965 16.476 12.5946 17C12.5946 17.5221 12.526 18.0485 12.3831 18.5633L21.5414 23.8513C22.5373 22.8414 23.8668 22.2287 25.2815 22.1277C26.6961 22.0267 28.0992 22.4443 29.2284 23.3024C30.3576 24.1606 31.1357 25.4006 31.4172 26.7907C31.6987 28.1807 31.4644 29.6257 30.7581 30.8556C30.0494 32.0876 28.9154 33.0185 27.5689 33.4735C26.2224 33.9285 24.7561 33.8762 23.4455 33.3265C22.1348 32.7768 21.0699 31.7675 20.4508 30.4882C19.8317 29.2088 19.7009 27.7475 20.0831 26.3785L10.9248 21.0892C10.1128 21.916 9.07315 22.4824 7.93816 22.7162C6.80318 22.95 5.62428 22.8407 4.55166 22.4021C3.47905 21.9635 2.56128 21.2155 1.91528 20.2535C1.26929 19.2914 0.924316 18.1588 0.924316 17C0.924316 15.8412 1.26929 14.7086 1.91528 13.7465C2.56128 12.7845 3.47905 12.0365 4.55166 11.5979C5.62428 11.1593 6.80318 11.05 7.93816 11.2838C9.07315 11.5176 10.1128 12.084 10.9248 12.9108L20.0831 7.62292C19.737 6.37664 19.8149 5.05065 20.3046 3.85348C20.7943 2.6563 21.668 1.65583 22.7883 1.00938ZM28.2308 4.60417C28.0407 4.26979 27.7863 3.97632 27.4823 3.74064C27.1783 3.50497 26.8307 3.33176 26.4595 3.23098C26.0883 3.1302 25.7008 3.10384 25.3194 3.15342C24.9379 3.20299 24.57 3.32753 24.2369 3.51986C23.9038 3.71219 23.612 3.96851 23.3784 4.27407C23.1447 4.57962 22.9738 4.92837 22.8755 5.30025C22.7772 5.67212 22.7534 6.05977 22.8055 6.44087C22.8576 6.82198 22.9846 7.18901 23.1791 7.52084C23.5687 8.18528 24.2052 8.66867 24.9498 8.86553C25.6944 9.0624 26.4867 8.95675 27.1537 8.57164C27.8207 8.18653 28.3083 7.55324 28.5101 6.80995C28.7119 6.06665 28.6115 5.27372 28.2308 4.60417ZM3.94664 17.7685C4.06485 18.1986 4.28004 18.5959 4.57568 18.9299C4.87133 19.2639 5.23957 19.5257 5.65213 19.6952C6.0647 19.8648 6.51062 19.9375 6.95568 19.9079C7.40074 19.8783 7.83309 19.7471 8.21955 19.5244C8.69137 19.2517 9.07735 18.8522 9.33374 18.3713C9.59012 17.8905 9.70664 17.3474 9.6701 16.8036C9.63357 16.2599 9.44542 15.7373 9.12701 15.295C8.80859 14.8527 8.37264 14.5085 7.86858 14.3014C7.36451 14.0943 6.8125 14.0325 6.27512 14.1231C5.73774 14.2137 5.23649 14.453 4.8282 14.814C4.41991 15.1749 4.12091 15.643 3.96509 16.1653C3.80928 16.6875 3.80289 17.2429 3.94664 17.7685ZM27.1633 25.4131C26.8315 25.2186 26.4644 25.0916 26.0833 25.0395C25.7022 24.9874 25.3146 25.0112 24.9427 25.1095C24.5708 25.2078 24.2221 25.3787 23.9165 25.6124C23.611 25.846 23.3547 26.1378 23.1623 26.4709C22.97 26.804 22.8455 27.1719 22.7959 27.5534C22.7463 27.9348 22.7727 28.3223 22.8734 28.6935C22.9742 29.0647 23.1474 29.4123 23.3831 29.7163C23.6188 30.0203 23.9123 30.2747 24.2466 30.4648C24.9162 30.8455 25.7091 30.9459 26.4524 30.7441C27.1957 30.5423 27.829 30.0547 28.2141 29.3877C28.5992 28.7207 28.7049 27.9284 28.508 27.1838C28.3111 26.4392 27.8277 25.8027 27.1633 25.4131Z" fill="#1E1E1E"/>
</svg>
