<svg width="70" height="70" viewBox="0 0 70 70" fill="none" xmlns="http://www.w3.org/2000/svg">
<rect width="70" height="70" rx="35" fill="#CBCCCB" fill-opacity="0.3"/>
<g clip-path="url(#clip0_702_606)">
<path d="M53.9 41.5625H52.8V34.1729C52.8 33.3047 52.4494 32.4707 51.8306 31.8555L44.9625 25.0264C44.3438 24.4111 43.505 24.0625 42.6319 24.0625H39.6V20.7812C39.6 18.9697 38.1219 17.5 36.3 17.5H18.7C16.8781 17.5 15.4 18.9697 15.4 20.7812V24.0625H11.55C11.2475 24.0625 11 24.3086 11 24.6094V25.7031C11 26.0039 11.2475 26.25 11.55 26.25H30.25C30.5525 26.25 30.8 26.4961 30.8 26.7969V27.8906C30.8 28.1914 30.5525 28.4375 30.25 28.4375H13.75C13.4475 28.4375 13.2 28.6836 13.2 28.9844V30.0781C13.2 30.3789 13.4475 30.625 13.75 30.625H28.05C28.3525 30.625 28.6 30.8711 28.6 31.1719V32.2656C28.6 32.5664 28.3525 32.8125 28.05 32.8125H11.55C11.2475 32.8125 11 33.0586 11 33.3594V34.4531C11 34.7539 11.2475 35 11.55 35H25.85C26.1525 35 26.4 35.2461 26.4 35.5469V36.6406C26.4 36.9414 26.1525 37.1875 25.85 37.1875H15.4V45.9375C15.4 49.5605 18.3563 52.5 22 52.5C25.6438 52.5 28.6 49.5605 28.6 45.9375H37.4C37.4 49.5605 40.3563 52.5 44 52.5C47.6437 52.5 50.6 49.5605 50.6 45.9375H53.9C54.505 45.9375 55 45.4453 55 44.8438V42.6562C55 42.0547 54.505 41.5625 53.9 41.5625ZM22 49.2188C20.1781 49.2188 18.7 47.749 18.7 45.9375C18.7 44.126 20.1781 42.6562 22 42.6562C23.8219 42.6562 25.3 44.126 25.3 45.9375C25.3 47.749 23.8219 49.2188 22 49.2188ZM44 49.2188C42.1781 49.2188 40.7 47.749 40.7 45.9375C40.7 44.126 42.1781 42.6562 44 42.6562C45.8219 42.6562 47.3 44.126 47.3 45.9375C47.3 47.749 45.8219 49.2188 44 49.2188ZM49.5 35H39.6V27.3438H42.6319L49.5 34.1729V35Z" fill="#596CB2"/>
</g>
<defs>
<clipPath id="clip0_702_606">
<rect width="44" height="35" fill="white" transform="translate(11 17.5)"/>
</clipPath>
</defs>
</svg>
