<svg width="51" height="45" viewBox="0 0 51 45" fill="none" xmlns="http://www.w3.org/2000/svg">
<path d="M7.7862 11.1951H14.6044V0H50.968V36.384H46.4226C46.4226 41.03 43.3771 44.7803 39.6044 44.7803C35.8317 44.7803 32.7862 41.03 32.7862 36.384H19.1498C19.1498 41.03 16.1044 44.7803 12.3317 44.7803C8.55893 44.7803 5.51347 41.03 5.51347 36.384H0.968018V22.3902L7.7862 11.1951ZM39.6044 40.5822C41.4907 40.5822 43.0135 38.707 43.0135 36.384C43.0135 34.061 41.4907 32.1859 39.6044 32.1859C37.718 32.1859 36.1953 34.061 36.1953 36.384C36.1953 38.707 37.718 40.5822 39.6044 40.5822ZM19.1498 8.39631H23.6953V27.9877H28.2407V8.39631H32.7862V27.9877H37.3317V8.39631H41.8771V27.9877H46.4226V5.59754H19.1498V8.39631ZM12.3317 40.5822C14.218 40.5822 15.7407 38.707 15.7407 36.384C15.7407 34.061 14.218 32.1859 12.3317 32.1859C10.4453 32.1859 8.92256 34.061 8.92256 36.384C8.92256 38.707 10.4453 40.5822 12.3317 40.5822ZM14.6044 22.3902V15.3932H8.92256L4.46802 22.3902H14.6044Z" fill="#8F6B3B"/>
</svg>
