<svg width="23" height="20" viewBox="0 0 23 20" fill="none" xmlns="http://www.w3.org/2000/svg">
<path d="M1.46802 5V4C1.2028 4 0.948447 4.10536 0.760911 4.29289C0.573374 4.48043 0.468018 4.73478 0.468018 5H1.46802ZM12.468 5H13.468C13.468 4.73478 13.3627 4.48043 13.1751 4.29289C12.9876 4.10536 12.7332 4 12.468 4V5ZM12.468 7V6C12.2028 6 11.9484 6.10536 11.7609 6.29289C11.5734 6.48043 11.468 6.73478 11.468 7H12.468ZM1.46802 6H12.468V4H1.46802V6ZM11.468 5V17H13.468V5H11.468ZM2.46802 15V5H0.468018V15H2.46802ZM12.468 8H17.468V6H12.468V8ZM20.468 11V15H22.468V11H20.468ZM13.468 17V7H11.468V17H13.468ZM18.175 17.707C17.9875 17.8945 17.7332 17.9998 17.468 17.9998C17.2029 17.9998 16.9485 17.8945 16.761 17.707L15.347 19.121C15.9096 19.6834 16.6725 19.9994 17.468 19.9994C18.2635 19.9994 19.0264 19.6834 19.589 19.121L18.175 17.707ZM16.761 16.293C16.9485 16.1055 17.2029 16.0002 17.468 16.0002C17.7332 16.0002 17.9875 16.1055 18.175 16.293L19.589 14.879C19.0264 14.3166 18.2635 14.0006 17.468 14.0006C16.6725 14.0006 15.9096 14.3166 15.347 14.879L16.761 16.293ZM6.17502 17.707C5.98749 17.8945 5.73318 17.9998 5.46802 17.9998C5.20285 17.9998 4.94855 17.8945 4.76102 17.707L3.34702 19.121C3.9096 19.6834 4.67252 19.9994 5.46802 19.9994C6.26351 19.9994 7.02643 19.6834 7.58902 19.121L6.17502 17.707ZM4.76102 16.293C4.94855 16.1055 5.20285 16.0002 5.46802 16.0002C5.73318 16.0002 5.98749 16.1055 6.17502 16.293L7.58902 14.879C7.02643 14.3166 6.26351 14.0006 5.46802 14.0006C4.67252 14.0006 3.9096 14.3166 3.34702 14.879L4.76102 16.293ZM18.175 16.293C18.371 16.488 18.468 16.743 18.468 17H20.468C20.468 16.234 20.175 15.464 19.589 14.879L18.175 16.293ZM18.468 17C18.468 17.2652 18.3626 17.5195 18.175 17.707L19.589 19.121C20.1517 18.5585 20.4678 17.7956 20.468 17H18.468ZM15.468 16H12.468V18H15.468V16ZM16.761 17.707C16.5735 17.5195 16.4681 17.2652 16.468 17H14.468C14.468 17.766 14.761 18.536 15.347 19.121L16.761 17.707ZM16.468 17C16.4681 16.7348 16.5735 16.4805 16.761 16.293L15.347 14.879C14.7844 15.4415 14.4682 16.2044 14.468 17H16.468ZM4.76102 17.707C4.57347 17.5195 4.46807 17.2652 4.46802 17H2.46802C2.46802 17.766 2.76102 18.536 3.34702 19.121L4.76102 17.707ZM4.46802 17C4.46807 16.7348 4.57347 16.4805 4.76102 16.293L3.34702 14.879C2.78437 15.4415 2.46819 16.2044 2.46802 17H4.46802ZM12.468 16H7.46802V18H12.468V16ZM6.17502 16.293C6.37102 16.488 6.46802 16.743 6.46802 17H8.46802C8.46802 16.234 8.17502 15.464 7.58902 14.879L6.17502 16.293ZM6.46802 17C6.46796 17.2652 6.36257 17.5195 6.17502 17.707L7.58902 19.121C8.15167 18.5585 8.46785 17.7956 8.46802 17H6.46802ZM20.468 15C20.468 15.2652 20.3627 15.5196 20.1751 15.7071C19.9876 15.8946 19.7332 16 19.468 16V18C20.2637 18 21.0267 17.6839 21.5893 17.1213C22.1519 16.5587 22.468 15.7956 22.468 15H20.468ZM17.468 8C18.2637 8 19.0267 8.31607 19.5893 8.87868C20.1519 9.44129 20.468 10.2044 20.468 11H22.468C22.468 10.3434 22.3387 9.69321 22.0874 9.08658C21.8361 8.47996 21.4678 7.92876 21.0036 7.46447C20.5393 7.00017 19.9881 6.63188 19.3814 6.3806C18.7748 6.12933 18.1246 6 17.468 6V8ZM0.468018 15C0.468018 15.7956 0.784088 16.5587 1.3467 17.1213C1.90931 17.6839 2.67237 18 3.46802 18V16C3.2028 16 2.94845 15.8946 2.76091 15.7071C2.57337 15.5196 2.46802 15.2652 2.46802 15H0.468018Z" fill="#10B821"/>
<path d="M6.96802 4C6.96802 3.20435 6.65195 2.44129 6.08934 1.87868C5.52673 1.31607 4.76367 1 3.96802 1C3.7028 1 3.44845 1.10536 3.26091 1.29289C3.07337 1.48043 2.96802 1.73478 2.96802 2C2.96802 2.79565 3.28409 3.55871 3.8467 4.12132C4.40931 4.68393 5.17237 5 5.96802 5H6.96802M6.96802 4V5M6.96802 4C6.96802 3.20435 7.28409 2.44129 7.8467 1.87868C8.40931 1.31607 9.17237 1 9.96802 1C10.2332 1 10.4876 1.10536 10.6751 1.29289C10.8627 1.48043 10.968 1.73478 10.968 2C10.968 2.79565 10.6519 3.55871 10.0893 4.12132C9.52673 4.68393 8.76367 5 7.96802 5H6.96802" stroke="#10B821" stroke-width="2" stroke-linejoin="round"/>
</svg>
