<svg width="35" height="35" viewBox="0 0 35 35" fill="none" xmlns="http://www.w3.org/2000/svg">
<g clip-path="url(#clip0_2701_1611)">
<path d="M14 21H21V10.5H26.25L17.5 1.75L8.75003 10.5H14V21ZM33.8415 23.681C33.474 23.289 31.0223 20.6657 30.3223 19.9815C29.8321 19.5108 29.1784 19.2486 28.4988 19.25H25.424L30.786 24.4895H24.584C24.4996 24.4872 24.4161 24.5076 24.3423 24.5485C24.2684 24.5895 24.2068 24.6495 24.164 24.7222L22.736 28H12.264L10.836 24.7222C10.7919 24.6507 10.7301 24.5917 10.6565 24.5509C10.5829 24.5101 10.5001 24.489 10.416 24.4895H4.21403L9.57428 19.25H6.50128C5.80653 19.25 5.14328 19.5282 4.67778 19.9815C3.97778 20.6675 1.52603 23.2907 1.15853 23.681C0.302778 24.5927 -0.167972 25.319 0.0560277 26.2167L1.03778 31.5962C1.26178 32.4957 2.24703 33.2342 3.22878 33.2342H31.7748C32.7565 33.2342 33.7418 32.4957 33.9658 31.5962L34.9475 26.2167C35.168 25.319 34.699 24.5927 33.8415 23.681Z" fill="#484848"/>
</g>
<defs>
<clipPath id="clip0_2701_1611">
<rect width="35" height="35" fill="white"/>
</clipPath>
</defs>
</svg>
