<svg width="35" height="35" viewBox="0 0 35 35" fill="none" xmlns="http://www.w3.org/2000/svg">
<path d="M2.1875 25.7031C2.1875 26.7184 2.59082 27.6921 3.30873 28.41C4.02664 29.1279 5.00034 29.5312 6.01562 29.5312H28.9844C29.9997 29.5312 30.9734 29.1279 31.6913 28.41C32.4092 27.6921 32.8125 26.7184 32.8125 25.7031V15.1758H2.1875V25.7031ZM6.69922 20.5078C6.69922 19.9639 6.91528 19.4423 7.29988 19.0577C7.68447 18.6731 8.2061 18.457 8.75 18.457H12.0312C12.5752 18.457 13.0968 18.6731 13.4814 19.0577C13.866 19.4423 14.082 19.9639 14.082 20.5078V21.875C14.082 22.4189 13.866 22.9405 13.4814 23.3251C13.0968 23.7097 12.5752 23.9258 12.0312 23.9258H8.75C8.2061 23.9258 7.68447 23.7097 7.29988 23.3251C6.91528 22.9405 6.69922 22.4189 6.69922 21.875V20.5078ZM28.9844 5.46875H6.01562C5.00034 5.46875 4.02664 5.87207 3.30873 6.58998C2.59082 7.30789 2.1875 8.28159 2.1875 9.29688V11.0742H32.8125V9.29688C32.8125 8.28159 32.4092 7.30789 31.6913 6.58998C30.9734 5.87207 29.9997 5.46875 28.9844 5.46875Z" fill="#1016BF"/>
</svg>
