<svg width="35" height="35" viewBox="0 0 35 35" fill="none" xmlns="http://www.w3.org/2000/svg">
<g clip-path="url(#clip0_2693_1546)">
<path d="M17.5 35C12.8587 35 8.40752 33.1563 5.12563 29.8744C1.84374 26.5925 0 22.1413 0 17.5C0 12.8587 1.84374 8.40752 5.12563 5.12563C8.40752 1.84374 12.8587 0 17.5 0C22.1413 0 26.5925 1.84374 29.8744 5.12563C33.1563 8.40752 35 12.8587 35 17.5C35 22.1413 33.1563 26.5925 29.8744 29.8744C26.5925 33.1563 22.1413 35 17.5 35ZM31.0625 21C31.6552 18.7043 31.6552 16.2957 31.0625 14H24.3775C24.5386 16.3306 24.5386 18.6694 24.3775 21H31.0625ZM29.6275 24.5H23.9925C23.7001 26.6095 23.1415 28.6735 22.33 30.6425C25.4043 29.5084 27.9856 27.3357 29.6275 24.5ZM14.14 21H20.86C21.05 18.6705 21.05 16.3295 20.86 14H14.14C13.95 16.3295 13.95 18.6705 14.14 21ZM14.5775 24.5C15.295 28.7 16.555 31.5 17.5 31.5C18.445 31.5 19.705 28.7 20.4225 24.5H14.5775ZM3.9375 21H10.6225C10.4614 18.6694 10.4614 16.3306 10.6225 14H3.9375C3.34476 16.2957 3.34476 18.7043 3.9375 21ZM5.3725 24.5C7.01445 27.3357 9.59574 29.5084 12.67 30.6425C11.935 28.9625 11.375 26.8625 11.0075 24.5H5.3725ZM29.6275 10.5C27.9856 7.66431 25.4043 5.49156 22.33 4.3575C23.065 6.0375 23.625 8.1375 23.9925 10.5H29.6275ZM14.5775 10.5H20.4225C19.705 6.3 18.445 3.5 17.5 3.5C16.555 3.5 15.295 6.3 14.5775 10.5ZM5.3725 10.5H11.0075C11.3575 8.1375 11.935 6.0375 12.67 4.3575C9.59574 5.49156 7.01445 7.66431 5.3725 10.5Z" fill="#1016BF"/>
</g>
<defs>
<clipPath id="clip0_2693_1546">
<rect width="35" height="35" fill="white"/>
</clipPath>
</defs>
</svg>
