<svg width="36" height="28" viewBox="0 0 36 28" fill="none" xmlns="http://www.w3.org/2000/svg">
<path d="M16.25 19.25H18.875V15.75H23.25C23.7458 15.75 24.1618 15.582 24.4978 15.246C24.8337 14.91 25.0012 14.4947 25 14V10.5C25 10.0042 24.832 9.58883 24.496 9.254C24.16 8.91917 23.7447 8.75117 23.25 8.75H16.25V19.25ZM26.75 19.25H29.375V8.75H26.75V19.25ZM18.875 13.125V11.375H22.375V13.125H18.875ZM7.5 19.25H12.75C13.2458 19.25 13.6618 19.082 13.9978 18.746C14.3338 18.41 14.5012 17.9947 14.5 17.5V8.75H11.875V16.625H8.375V8.75H5.75V17.5C5.75 17.9958 5.918 18.4118 6.254 18.7478C6.59 19.0837 7.00533 19.2512 7.5 19.25ZM4 28C3.0375 28 2.21383 27.6576 1.529 26.9727C0.844167 26.2879 0.501167 25.4637 0.5 24.5V3.5C0.5 2.5375 0.843 1.71383 1.529 1.029C2.215 0.344166 3.03867 0.00116667 4 0H32C32.9625 0 33.7868 0.343 34.4728 1.029C35.1587 1.715 35.5012 2.53867 35.5 3.5V24.5C35.5 25.4625 35.1576 26.2868 34.4728 26.9727C33.7879 27.6588 32.9637 28.0012 32 28H4Z" fill="#1016BF"/>
</svg>
