<svg width="23" height="22" viewBox="0 0 23 22" fill="none" xmlns="http://www.w3.org/2000/svg">
<path d="M13.3332 11V18.2233C13.3699 18.4983 13.2782 18.7917 13.0674 18.9842C12.9826 19.0691 12.8818 19.1366 12.7709 19.1826C12.6601 19.2286 12.5412 19.2522 12.4211 19.2522C12.3011 19.2522 12.1822 19.2286 12.0713 19.1826C11.9604 19.1366 11.8597 19.0691 11.7749 18.9842L9.93238 17.1417C9.83246 17.0439 9.75648 16.9244 9.71037 16.7924C9.66426 16.6604 9.64926 16.5196 9.66654 16.3808V11H9.63904L4.35904 4.235C4.21018 4.0439 4.14302 3.80165 4.17221 3.56119C4.20141 3.32072 4.32461 3.10158 4.51488 2.95167C4.68904 2.82333 4.88154 2.75 5.08321 2.75H17.9165C18.1182 2.75 18.3107 2.82333 18.4849 2.95167C18.6751 3.10158 18.7983 3.32072 18.8275 3.56119C18.8567 3.80165 18.7896 4.0439 18.6407 4.235L13.3607 11H13.3332Z" fill="#264A3F"/>
</svg>
