<svg width="27" height="27" viewBox="0 0 27 27" fill="none" xmlns="http://www.w3.org/2000/svg">
<path d="M22.4438 23.625C20.1 23.625 17.7799 23.1187 15.4834 22.1062C13.1869 21.0938 11.1007 19.65 9.225 17.775C7.34925 15.9 5.9055 13.8188 4.89375 11.5312C3.882 9.24375 3.37575 6.91875 3.375 4.55625V3.375H10.0125L11.0531 9.02812L7.84687 12.2625C8.25938 12.9937 8.71875 13.6875 9.225 14.3438C9.73125 15 10.275 15.6094 10.8562 16.1719C11.4 16.7156 11.9955 17.2361 12.6427 17.7334C13.29 18.2306 13.9883 18.6945 14.7375 19.125L18 15.8625L23.625 17.0156V23.625H22.4438Z" fill="#EE1515"/>
</svg>
