<svg width="50" height="53" viewBox="0 0 50 53" fill="none" xmlns="http://www.w3.org/2000/svg">
<path d="M0.673789 0.0644404C0.386132 1.19067 0.678929 2.44007 1.5536 3.31507C2.65118 4.41253 4.33829 4.59432 5.63219 3.86194C6.25446 4.42518 6.88738 4.97653 7.53062 5.51569C7.49284 5.71756 7.47373 5.92248 7.47352 6.12786C7.47352 7.98986 9.00565 9.51849 10.8674 9.51849C11.4052 9.51849 11.9148 9.39052 12.3681 9.16411C12.999 9.5923 13.6365 10.0109 14.2801 10.4197C14.2272 10.658 14.2003 10.9013 14.2001 11.1454C14.2001 13.0074 15.7322 14.5361 17.594 14.5361C18.4227 14.5361 19.1854 14.2329 19.7776 13.7327L21.2949 14.6214C21.2652 14.7923 21.25 14.9654 21.2496 15.1389V19.3941L9.97635 25.9201V43.4271L25.1012 52.1829L40.2259 43.4271V25.9201L28.8457 19.3322V15.139C28.8457 15.0315 28.8384 14.9262 28.8269 14.8222C29.4168 14.4864 29.9923 14.1572 30.5438 13.8385C31.1154 14.2751 31.8274 14.536 32.5959 14.536C34.4578 14.536 35.9865 13.0073 35.9865 11.1453C35.9865 10.9411 35.9672 10.7412 35.932 10.5464C36.5953 10.1096 37.2508 9.66113 37.8984 9.2013C38.3326 9.40419 38.8149 9.51849 39.3224 9.51849C41.1843 9.51849 42.7163 7.98986 42.7163 6.12786C42.7162 5.9157 42.6959 5.70402 42.6559 5.49567C43.2568 4.98808 43.8518 4.4734 44.4406 3.95174C45.7094 4.57671 47.2991 4.36496 48.3493 3.31496C49.224 2.44017 49.5168 1.19089 49.2292 0.0643311H46.9965C47.436 0.598956 47.4051 1.36764 46.9035 1.86902C46.369 2.40364 45.5309 2.40386 44.9964 1.86902C44.4949 1.36753 44.464 0.598737 44.9034 0.0643311H42.6706C42.4612 0.884644 42.5612 1.76971 42.9681 2.52833C42.5328 2.91266 42.094 3.29308 41.6519 3.66955C41.0421 3.09117 40.2209 2.73385 39.3225 2.73385C37.4605 2.73385 35.9286 4.26619 35.9286 6.12797C35.9286 6.72407 36.0859 7.28549 36.3604 7.77407C35.898 8.09626 35.4314 8.41249 34.9608 8.72268C34.3483 8.1233 33.5126 7.75142 32.5961 7.75142C30.734 7.75142 29.202 9.28377 29.202 11.1455C29.202 11.4918 29.2549 11.8264 29.3532 12.142C28.8906 12.4094 28.3969 12.6919 27.9043 12.9738C27.7937 12.8659 27.675 12.7666 27.5493 12.6767C26.8174 12.1552 25.9393 11.924 25.065 11.9095C24.1904 11.8951 23.2986 12.0974 22.5526 12.6209C22.4636 12.6834 22.3783 12.751 22.297 12.8233C21.8194 12.5418 21.3384 12.2584 20.8809 11.9896C20.9511 11.7194 20.9886 11.4366 20.9886 11.1457C20.9886 9.28366 19.4565 7.75153 17.5947 7.75153C16.7222 7.75153 15.9223 8.08786 15.3183 8.63682C14.8318 8.32894 14.3487 8.01552 13.8693 7.69663C14.125 7.21337 14.2587 6.67493 14.2587 6.12819C14.2587 4.26608 12.73 2.73396 10.8681 2.73396C9.96465 2.73396 9.13952 3.09533 8.52877 3.67917C8.01917 3.24712 7.51634 2.80712 7.02049 2.35935C7.35551 1.64021 7.42682 0.824815 7.23268 0.0646592H4.99957C5.43904 0.599175 5.4082 1.36786 4.9066 1.86935C4.37209 2.40386 3.53395 2.40397 2.99943 1.86935C2.49805 1.36775 2.46732 0.598956 2.90668 0.0646592H0.673789V0.0644404ZM10.8675 4.77785C11.6249 4.77785 12.2143 5.37066 12.2143 6.12786C12.2143 6.88507 11.6251 7.47449 10.8679 7.47449C10.1103 7.47449 9.51763 6.88496 9.51763 6.12775C9.51763 5.37055 10.1104 4.77774 10.8678 4.77774L10.8675 4.77785ZM39.3222 4.77785C40.0795 4.77785 40.6723 5.37066 40.6723 6.12786C40.6723 6.88507 40.0795 7.47449 39.3221 7.47449C38.5648 7.47449 37.972 6.88496 37.972 6.12775C37.972 5.37055 38.5648 4.77774 39.3222 4.77774V4.77785ZM17.5943 9.79532C18.3514 9.79532 18.9443 10.3881 18.9443 11.1454C18.9443 11.9028 18.3515 12.4921 17.5942 12.4921C16.8367 12.4921 16.244 11.9025 16.244 11.1453C16.244 10.3881 16.8368 9.79532 17.5941 9.79532H17.5943ZM32.5956 9.79532C33.353 9.79532 33.9424 10.3881 33.9424 11.1454C33.9424 11.9028 33.3529 12.4921 32.5956 12.4921C31.8384 12.4921 31.2455 11.9025 31.2455 11.1453C31.2455 10.3881 31.8383 9.79532 32.5958 9.79532H32.5956ZM25.0308 13.953C25.5444 13.9615 26.054 14.121 26.363 14.3413C26.6721 14.5613 26.8016 14.7574 26.8016 15.1388V18.1488L25.1013 17.1645L23.2937 18.2106V15.139C23.2937 14.6917 23.4313 14.5008 23.7261 14.2941C24.021 14.0874 24.5177 13.9447 25.0309 13.9531L25.0308 13.953ZM24.1425 20.0813V23.6609L16.0288 28.387L12.9053 26.5865L24.1425 20.0813ZM26.1864 20.1546L37.3601 26.6228L34.2294 28.4277L26.1867 23.7431L26.1864 20.1546ZM25.0939 25.4724L32.9969 30.0754L32.9967 39.2975L25.0941 43.9006L17.1911 39.2975L17.1914 30.0756L25.0942 25.4723L25.0939 25.4724ZM25.1448 27.4772L18.9232 38.2124V38.2915L25.1101 41.8984L31.2968 38.2915V31.0635L25.1448 27.4772ZM12.0205 28.4358L15.1471 30.2383V39.4287L12.0205 41.2312V28.436V28.4358ZM38.1819 28.5088L38.1815 41.1578L35.0408 39.3473V30.3195L38.1819 28.5088ZM33.9757 41.0926L37.0835 42.8842L26.1865 49.1926V45.6298L33.9757 41.0926ZM16.2822 41.1337L24.1423 45.7121V49.2661L13.1818 42.921L16.282 41.1336L16.2822 41.1337Z" fill="#1E1E1E"/>
</svg>
