<svg width="35" height="35" viewBox="0 0 35 35" fill="none" xmlns="http://www.w3.org/2000/svg">
<path d="M27.7812 7.16082C26.444 5.81056 24.8514 4.73994 23.0963 4.01135C21.3412 3.28276 19.4586 2.91078 17.5583 2.91707C9.59575 2.91707 3.10617 9.40665 3.10617 17.3692C3.10617 19.9212 3.777 22.4004 5.03117 24.5879L2.9895 32.0837L10.6458 30.0712C12.7603 31.2233 15.1374 31.8358 17.5583 31.8358C25.5208 31.8358 32.0103 25.3462 32.0103 17.3837C32.0103 13.5192 30.5083 9.8879 27.7812 7.16082ZM17.5583 29.3858C15.3999 29.3858 13.2853 28.8025 11.4333 27.7087L10.9958 27.4462L6.44575 28.6421L7.65617 24.2087L7.3645 23.7567C6.16509 21.8419 5.52835 19.6285 5.527 17.3692C5.527 10.7483 10.9228 5.35249 17.5437 5.35249C20.752 5.35249 23.7708 6.60665 26.0312 8.88165C27.1506 9.99562 28.0377 11.3208 28.641 12.7803C29.2444 14.2397 29.5519 15.8045 29.5458 17.3837C29.5749 24.0046 24.1791 29.3858 17.5583 29.3858ZM24.1499 20.4025C23.7853 20.2275 22.0062 19.3525 21.6853 19.2212C21.3499 19.1046 21.1166 19.0462 20.8687 19.3962C20.6208 19.7608 19.9353 20.5775 19.7312 20.8108C19.527 21.0587 19.3083 21.0879 18.9437 20.8983C18.5791 20.7233 17.4124 20.3296 16.0416 19.1046C14.9624 18.1421 14.2478 16.9608 14.0291 16.5962C13.8249 16.2317 13.9999 16.0421 14.1895 15.8525C14.3499 15.6921 14.5541 15.4296 14.7291 15.2254C14.9041 15.0212 14.977 14.8608 15.0937 14.6275C15.2103 14.3796 15.152 14.1754 15.0645 14.0004C14.977 13.8254 14.2478 12.0462 13.9562 11.3171C13.6645 10.6171 13.3583 10.7046 13.1395 10.69H12.4395C12.1916 10.69 11.8124 10.7775 11.477 11.1421C11.1562 11.5067 10.2228 12.3817 10.2228 14.1608C10.2228 15.94 11.5208 17.6608 11.6958 17.8942C11.8708 18.1421 14.2478 21.7879 17.8645 23.3483C18.7249 23.7275 19.3958 23.9462 19.9208 24.1067C20.7812 24.3837 21.5687 24.34 22.1958 24.2525C22.8958 24.1504 24.3395 23.3775 24.6312 22.5317C24.9374 21.6858 24.9374 20.9712 24.8353 20.8108C24.7333 20.6504 24.5145 20.5775 24.1499 20.4025Z" fill="white"/>
</svg>
