<svg width="46" height="46" viewBox="0 0 46 46" fill="none" xmlns="http://www.w3.org/2000/svg">
<path d="M2.60709 1.6954C2.3708 2.62052 2.61132 3.64681 3.3298 4.36556C4.23138 5.26705 5.61722 5.41637 6.68007 4.81478C7.19121 5.27744 7.71111 5.73033 8.23949 6.17321C8.20846 6.33904 8.19276 6.50737 8.19259 6.67607C8.19259 8.20557 9.45112 9.46123 10.9804 9.46123C11.4222 9.46123 11.8408 9.35611 12.2131 9.17013C12.7314 9.52186 13.255 9.8657 13.7837 10.2015C13.7402 10.3973 13.7182 10.5971 13.718 10.7977C13.718 12.3272 14.9765 13.5828 16.5058 13.5828C17.1866 13.5828 17.8131 13.3338 18.2995 12.9229L19.5459 13.6529C19.5215 13.7933 19.509 13.9355 19.5087 14.078V17.5733L10.2485 22.934V37.3148L22.6724 44.507L35.0963 37.3148V22.934L25.7483 17.5225V14.0781C25.7483 13.9898 25.7423 13.9033 25.7329 13.8178C26.2174 13.542 26.6902 13.2716 27.1432 13.0098C27.6127 13.3684 28.1976 13.5827 28.8288 13.5827C30.3582 13.5827 31.614 12.3271 31.614 10.7976C31.614 10.6298 31.5981 10.4656 31.5692 10.3056C32.114 9.94675 32.6525 9.57839 33.1844 9.20068C33.5411 9.36734 33.9373 9.46123 34.3542 9.46123C35.8836 9.46123 37.142 8.20557 37.142 6.67607C37.1419 6.50179 37.1253 6.32791 37.0924 6.15677C37.586 5.73982 38.0748 5.31705 38.5584 4.88854C39.6006 5.40191 40.9065 5.22797 41.7691 4.36547C42.4877 3.6469 42.7282 2.6207 42.4919 1.69531H40.6579C41.0189 2.13447 40.9936 2.76589 40.5815 3.17773C40.1425 3.61689 39.454 3.61707 39.0149 3.17773C38.603 2.7658 38.5777 2.13429 38.9386 1.69531H37.1045C36.9324 2.36914 37.0146 3.09616 37.3489 3.71931C36.9913 4.03501 36.6309 4.3475 36.2677 4.65674C35.7668 4.18165 35.0923 3.88813 34.3543 3.88813C32.8248 3.88813 31.5664 5.14684 31.5664 6.67616C31.5664 7.16581 31.6956 7.62698 31.9211 8.02831C31.5412 8.29296 31.158 8.55273 30.7714 8.80752C30.2683 8.31518 29.5819 8.00971 28.829 8.00971C27.2994 8.00971 26.0409 9.26842 26.0409 10.7977C26.0409 11.0822 26.0844 11.357 26.1652 11.6162C25.7852 11.8359 25.3796 12.068 24.975 12.2995C24.8841 12.2109 24.7866 12.1293 24.6834 12.0555C24.0822 11.6271 23.3609 11.4372 22.6427 11.4253C21.9243 11.4134 21.1917 11.5797 20.579 12.0096C20.5059 12.061 20.4358 12.1165 20.369 12.1759C19.9767 11.9447 19.5816 11.7119 19.2058 11.4911C19.2635 11.2692 19.2942 11.0368 19.2942 10.7978C19.2942 9.26833 18.0358 8.0098 16.5064 8.0098C15.7897 8.0098 15.1327 8.28607 14.6365 8.737C14.2369 8.4841 13.8401 8.22665 13.4463 7.9647C13.6563 7.56774 13.7661 7.12545 13.7661 6.67634C13.7661 5.14675 12.5104 3.88822 10.981 3.88822C10.2389 3.88822 9.56109 4.18506 9.0594 4.66465C8.6408 4.30975 8.22776 3.94832 7.82046 3.5805C8.09565 2.98978 8.15423 2.32 7.99475 1.69558H6.16041C6.52141 2.13465 6.49607 2.76607 6.08405 3.178C5.64498 3.61707 4.95651 3.61716 4.51744 3.178C4.1056 2.76598 4.08035 2.13447 4.44125 1.69558H2.60709V1.6954ZM10.9805 5.56713C11.6026 5.56713 12.0868 6.05408 12.0868 6.67607C12.0868 7.29806 11.6028 7.78223 10.9808 7.78223C10.3585 7.78223 9.87168 7.29797 9.87168 6.67598C9.87168 6.05399 10.3586 5.56704 10.9807 5.56704L10.9805 5.56713ZM34.354 5.56713C34.9761 5.56713 35.463 6.05408 35.463 6.67607C35.463 7.29806 34.9761 7.78223 34.3539 7.78223C33.7318 7.78223 33.2449 7.29797 33.2449 6.67598C33.2449 6.05399 33.7318 5.56704 34.354 5.56704V5.56713ZM16.5061 9.68862C17.128 9.68862 17.615 10.1756 17.615 10.7977C17.615 11.4197 17.1281 11.9038 16.506 11.9038C15.8838 11.9038 15.3969 11.4196 15.3969 10.7976C15.3969 10.1756 15.8838 9.68862 16.5059 9.68862H16.5061ZM28.8286 9.68862C29.4507 9.68862 29.9349 10.1756 29.9349 10.7977C29.9349 11.4197 29.4506 11.9038 28.8286 11.9038C28.2066 11.9038 27.7196 11.4196 27.7196 10.7976C27.7196 10.1756 28.2065 9.68862 28.8287 9.68862H28.8286ZM22.6147 13.1039C23.0365 13.1109 23.4552 13.2419 23.709 13.4228C23.9629 13.6036 24.0692 13.7647 24.0692 14.0779V16.5504L22.6725 15.7418L21.1878 16.6012V14.0781C21.1878 13.7107 21.3008 13.5539 21.5429 13.3841C21.7851 13.2143 22.1931 13.097 22.6148 13.1039L22.6147 13.1039ZM21.885 18.1378V21.0782L15.2202 24.9604L12.6544 23.4813L21.885 18.1378ZM23.5639 18.198L32.7423 23.5112L30.1706 24.9938L23.5641 21.1458L23.5639 18.198ZM22.6665 22.5662L29.1583 26.3473L29.1581 33.9225L22.6666 37.7037L16.1748 33.9225L16.1751 26.3475L22.6667 22.5661L22.6665 22.5662ZM22.7083 24.213L17.5977 33.0312V33.0962L22.6798 36.059L27.7617 33.0962V27.1589L22.7083 24.213ZM11.9276 25.0004L14.4958 26.481V34.0303L11.9276 35.511V25.0006V25.0004ZM33.4173 25.0604L33.417 35.4507L30.8372 33.9635V26.5478L33.4173 25.0604ZM29.9623 35.3971L32.5151 36.8688L23.564 42.0507V39.1241L29.9623 35.3971ZM15.4282 35.4308L21.8848 39.1917V42.1111L12.8815 36.899L15.4282 35.4307L15.4282 35.4308Z" fill="#1E1E1E"/>
</svg>
