<svg width="58" height="58" viewBox="0 0 58 58" fill="none" xmlns="http://www.w3.org/2000/svg">
<path d="M50.1435 28.9999L52.8115 24.3889C53.1322 23.8341 53.2194 23.1747 53.054 22.5557C52.8885 21.9366 52.4841 21.4086 51.9294 21.0877L47.3136 18.4197V13.1031C47.3136 12.4621 47.059 11.8474 46.6058 11.3942C46.1525 10.941 45.5379 10.6864 44.8969 10.6864H39.5827L36.9171 6.07299C36.5968 5.51795 36.0691 5.11287 35.4502 4.94682C35.1435 4.86466 34.8237 4.84371 34.509 4.88518C34.1943 4.92664 33.8908 5.02971 33.6159 5.18849L29.0001 7.85649L24.3843 5.18607C23.8292 4.86562 23.1696 4.77877 22.5505 4.94465C21.9314 5.11052 21.4036 5.51553 21.0831 6.07057L18.4151 10.6864H13.1008C12.4599 10.6864 11.8452 10.941 11.392 11.3942C10.9388 11.8474 10.6842 12.4621 10.6842 13.1031V18.4173L6.06834 21.0853C5.79339 21.2442 5.55245 21.4557 5.3593 21.7078C5.16614 21.9598 5.02456 22.2475 4.94264 22.5543C4.86072 22.8611 4.84007 23.1811 4.88187 23.4959C4.92367 23.8106 5.0271 24.1141 5.18625 24.3889L7.85425 28.9999L5.18625 33.6109C4.86723 34.1662 4.78067 34.8251 4.94545 35.4439C5.11024 36.0628 5.513 36.5914 6.06592 36.9145L10.6818 39.5825V44.8967C10.6818 45.5377 10.9364 46.1524 11.3896 46.6056C11.8428 47.0588 12.4575 47.3134 13.0984 47.3134H18.4151L21.0831 51.9292C21.297 52.295 21.6025 52.5987 21.9695 52.8106C22.3364 53.0225 22.7522 53.1351 23.1759 53.1376C23.5964 53.1376 24.0145 53.0264 24.3867 52.8113L28.9977 50.1433L33.6135 52.8113C34.1683 53.132 34.8277 53.2192 35.4467 53.0538C36.0658 52.8884 36.5938 52.4839 36.9147 51.9292L39.5803 47.3134H44.8945C45.5354 47.3134 46.1501 47.0588 46.6033 46.6056C47.0566 46.1524 47.3112 45.5377 47.3112 44.8967V39.5825L51.927 36.9145C52.202 36.7556 52.4429 36.5441 52.636 36.292C52.8292 36.04 52.9708 35.7523 53.0527 35.4455C53.1346 35.1387 53.1553 34.8188 53.1135 34.504C53.0717 34.1892 52.9682 33.8857 52.8091 33.6109L50.1435 28.9999ZM22.956 16.8924C23.9177 16.8927 24.8399 17.2751 25.5198 17.9554C26.1996 18.6356 26.5813 19.5581 26.581 20.5198C26.5807 21.4816 26.1983 22.4038 25.5181 23.0836C24.8378 23.7634 23.9153 24.1451 22.9536 24.1448C21.9919 24.1445 21.0696 23.7621 20.3898 23.0819C19.71 22.4016 19.3283 21.4791 19.3286 20.5174C19.3289 19.5557 19.7113 18.6335 20.3915 17.9536C21.0718 17.2738 21.9943 16.8921 22.956 16.8924ZM23.681 40.0924L19.8143 37.1948L34.3143 17.8615L38.181 20.7591L23.681 40.0924ZM35.0393 41.0591C34.5631 41.0589 34.0916 40.965 33.6517 40.7826C33.2118 40.6002 32.8122 40.333 32.4756 39.9961C32.139 39.6593 31.872 39.2595 31.6899 38.8194C31.5078 38.3794 31.4142 37.9079 31.4143 37.4317C31.4145 36.9555 31.5084 36.4839 31.6908 36.0441C31.8732 35.6042 32.1404 35.2045 32.4773 34.8679C32.8141 34.5313 33.214 34.2643 33.654 34.0822C34.094 33.9001 34.5656 33.8065 35.0418 33.8067C36.0035 33.807 36.9257 34.1893 37.6055 34.8696C38.2853 35.5499 38.6671 36.4723 38.6668 37.4341C38.6664 38.3958 38.2841 39.318 37.6038 39.9978C36.9235 40.6777 36.0011 41.0594 35.0393 41.0591Z" fill="url(#paint0_linear_723_1179)"/>
<defs>
<linearGradient id="paint0_linear_723_1179" x1="28.9984" y1="4.8623" x2="28.9984" y2="53.1376" gradientUnits="userSpaceOnUse">
<stop stop-color="#B8B5FF"/>
<stop offset="1" stop-color="#BB21E2"/>
</linearGradient>
</defs>
</svg>
