<svg width="55" height="55" viewBox="0 0 55 55" fill="none" xmlns="http://www.w3.org/2000/svg">
<path d="M20.625 45.8333H11.4583C10.1979 45.8333 9.11931 45.3848 8.2225 44.488C7.32569 43.5912 6.87653 42.5119 6.875 41.2499V9.16659C6.875 7.90617 7.32417 6.82756 8.2225 5.93075C9.12083 5.03395 10.1994 4.58478 11.4583 4.58325H43.5417C44.8021 4.58325 45.8815 5.03242 46.7798 5.93075C47.6781 6.82909 48.1265 7.9077 48.125 9.16659V41.2499C48.125 42.5103 47.6766 43.5897 46.7798 44.488C45.883 45.3864 44.8036 45.8348 43.5417 45.8333H34.375L29.1042 51.1041C28.875 51.3333 28.6267 51.496 28.3594 51.5922C28.092 51.6885 27.8056 51.7358 27.5 51.7343C27.1944 51.7328 26.908 51.6854 26.6406 51.5922C26.3733 51.499 26.125 51.3363 25.8958 51.1041L20.625 45.8333ZM27.5 27.4999C29.7153 27.4999 31.6059 26.7169 33.1719 25.151C34.7378 23.585 35.5208 21.6944 35.5208 19.4791C35.5208 17.2638 34.7378 15.3732 33.1719 13.8072C31.6059 12.2412 29.7153 11.4583 27.5 11.4583C25.2847 11.4583 23.3941 12.2412 21.8281 13.8072C20.2622 15.3732 19.4792 17.2638 19.4792 19.4791C19.4792 21.6944 20.2622 23.585 21.8281 25.151C23.3941 26.7169 25.2847 27.4999 27.5 27.4999ZM11.4583 41.2499H43.5417V38.6145C41.4792 36.5902 39.0828 34.996 36.3527 33.8318C33.6226 32.6676 30.6717 32.0848 27.5 32.0833C24.3283 32.0817 21.3774 32.6646 18.6473 33.8318C15.9172 34.999 13.5208 36.5933 11.4583 38.6145V41.2499Z" fill="url(#paint0_linear_723_1205)"/>
<defs>
<linearGradient id="paint0_linear_723_1205" x1="27.5" y1="4.58325" x2="27.5" y2="51.7343" gradientUnits="userSpaceOnUse">
<stop stop-color="#818EFF"/>
<stop offset="1" stop-color="#C69BFF"/>
</linearGradient>
</defs>
</svg>
