<?xml version="1.0" encoding="UTF-8"?> <svg xmlns="http://www.w3.org/2000/svg" xmlns:xlink="http://www.w3.org/1999/xlink" xmlns:xodm="http://www.corel.com/coreldraw/odm/2003" xml:space="preserve" width="2749px" height="802px" version="1.1" style="shape-rendering:geometricPrecision; text-rendering:geometricPrecision; image-rendering:optimizeQuality; fill-rule:evenodd; clip-rule:evenodd" viewBox="0 0 2227.39 649.89"> <defs> <style type="text/css"> .fil0 {fill:#224938;fill-rule:nonzero} </style> </defs> <g id="Layer_x0020_1"> <metadata id="CorelCorpID_0Corel-Layer"></metadata> <path class="fil0" d="M754.22 255.36l58.81 0 0 96.37c-12.57,15.66 -27.06,27.92 -43.47,36.77 -16.4,8.87 -33.91,13.29 -52.54,13.29 -19.09,0 -37.01,-4.66 -53.75,-13.97 -16.75,-9.32 -31.46,-22.17 -44.15,-38.59 -12.69,-16.39 -22.6,-35.45 -29.75,-57.17 -7.14,-21.72 -10.71,-44.97 -10.71,-69.78 0,-24.81 3.57,-48.03 10.71,-69.7 7.15,-21.66 17.06,-40.69 29.75,-57.09 12.69,-16.4 27.4,-29.25 44.15,-38.59 16.74,-9.3 34.66,-13.96 53.75,-13.96 22.63,0 43.52,6.4 62.67,19.19 19.14,12.82 35.11,30.19 47.91,52.13l3.43 -27.94c-15.08,-15.44 -32.35,-27.49 -51.77,-36.18 -19.44,-8.69 -40.19,-13.03 -62.24,-13.03 -23.21,0 -44.95,4.79 -65.24,14.4 -20.3,9.6 -38.12,22.85 -53.5,39.78 -15.37,16.92 -27.4,36.58 -36.09,58.98 -8.68,22.39 -13.03,46.4 -13.03,72.01 0,25.6 4.35,49.61 13.03,72.01 8.69,22.41 20.72,42.06 36.09,58.98 15.38,16.9 33.2,30.17 53.5,39.78 20.29,9.6 42.03,14.4 65.24,14.4 35.31,0 67.32,-11.08 96.01,-33.27 10.18,-7.77 19.44,-16.69 27.77,-26.75l0 -97.89 -86.58 0 0 5.82z"></path> <path class="fil0" d="M923.27 365.79c0,1.6 0.12,3.19 0.35,4.79 -13.83,-21.6 -20.74,-47.82 -20.74,-78.69 0,-20.46 3.17,-39.13 9.51,-55.99 6.35,-16.84 14.86,-30.28 25.55,-40.29 10.68,-9.99 22.48,-15 35.4,-15 11.09,0 21.34,3.69 30.78,11.07 9.43,7.36 17.43,17.4 24,30.09 6.58,12.68 11.17,27.26 13.8,43.72 -8.92,2.51 -17.83,5.59 -26.74,9.25 -30.75,13.03 -54.99,29.49 -72.7,49.38 -12.8,14.86 -19.21,28.74 -19.21,41.67zm41.66 -56.76c14.41,-11.54 31.72,-21.6 51.96,-30.17 18.05,-7.31 35.37,-12.23 51.95,-14.76 -4.23,-18.51 -11.15,-34.33 -20.74,-47.49 -9.15,-12.45 -20.15,-22.28 -33.01,-29.48 -12.86,-7.21 -26.78,-10.8 -41.75,-10.8 -18.07,0 -34.52,5.19 -49.38,15.61 -14.86,10.4 -26.72,24.34 -35.58,41.83 -8.85,17.48 -13.29,36.86 -13.29,58.12 0,21.26 4.44,40.63 13.29,58.13 8.86,17.48 20.72,31.43 35.58,41.83 14.86,10.4 31.31,15.59 49.38,15.59 12.11,0 23.86,-2.54 35.24,-7.62 11.36,-5.08 21.57,-12.43 30.59,-22.04l-14.22 -9.94c-10.63,17.95 -23.89,29.21 -39.79,33.78 -3.76,1.03 -7.7,1.54 -11.82,1.54 -12.58,0 -24.12,-4.79 -34.63,-14.4l-0.17 0 -0.18 -0.25c0,-0.06 -0.91,-0.95 -2.74,-2.66l-0.16 -0.35c-5.04,-5.37 -7.55,-12 -7.55,-19.88 0,-6.64 1.94,-13.73 5.82,-21.26 6.4,-12.01 16.8,-23.78 31.2,-35.33z"></path> <path class="fil0" d="M1395.12 383.44l0 -118.48 -0.69 -14.39c-1.49,-22.41 -7.55,-39.37 -18.17,-50.92l-0.86 -1.03c-6.06,-6.62 -13.8,-11.92 -23.23,-15.86 -9.44,-3.95 -19.75,-5.91 -30.96,-5.91 -12.23,0 -23.37,2.28 -33.42,6.85l-0.52 0.34c-9.72,4.46 -17.03,10 -21.95,16.64l-2.22 3.08c-3.43,4.57 -5.66,9.49 -6.69,14.74l0 0.18 -0.18 0c-7.88,-19.77 -20.85,-32.52 -38.91,-38.23 -8.57,-2.63 -18.8,-3.95 -30.69,-3.95 -25.61,0 -44.23,8.47 -55.9,25.37l0 -25.55 -27.6 0 0 231.3 27.6 0 0 -173.35c0,-9.25 2.21,-17.9 6.6,-25.96 4.41,-8.07 10.58,-14.52 18.52,-19.38 7.95,-4.85 16.6,-7.29 25.98,-7.29 10.51,0 20.06,2.98 28.63,8.92l0.17 0c1.03,0.68 2.06,1.48 3.09,2.4l0.17 0.17c3.89,2.97 8.03,8.63 12.43,16.98 4.4,8.34 7.29,19.61 8.66,33.77l0 163.74 26.57 0 1.21 -0.17 0 -171.62c0,-9.26 2.16,-17.92 6.51,-25.98 4.34,-8.07 10.48,-14.51 18.44,-19.38 7.94,-4.85 16.65,-7.29 26.14,-7.29 10.51,0 20,2.98 28.45,8.92l0.18 0c1.03,0.69 2.06,1.49 3.09,2.41l0.33 0.16c4.46,3.42 9.06,10.18 13.81,20.23 4.75,10.07 7.29,24.01 7.63,41.85l0 120.18c0,11.08 1.91,18.97 5.74,23.66 3.83,4.69 9.86,7.03 18.09,7.03 7.54,0 13.72,-3.16 18.52,-9.42 -0.68,0.67 -1.89,1.02 -3.61,1.02 -7.3,0 -10.96,-5.27 -10.96,-15.78z"></path> <path class="fil0" d="M1471.59 309.03l0 -266.09 48 0c35.33,0 62.59,13.03 81.79,39.1 17.83,24.1 26.74,55.43 26.74,93.95 0,38.52 -8.91,69.89 -26.74,94.13 -19.2,25.94 -46.53,38.91 -81.96,38.91l-47.83 0zm151.21 70.64l-71.49 -58.63c-3.65,-3.09 -7.71,-5.61 -12.16,-7.55 22.73,-3.43 43.05,-11.55 60.93,-24.34 17.9,-12.8 32.1,-29.03 42.62,-48.7 10.51,-19.65 15.77,-41.15 15.77,-64.46 0,-25.6 -6.26,-48.9 -18.78,-69.88 -12.52,-20.96 -29.29,-37.72 -50.33,-50.23 -21.03,-12.51 -44.28,-18.77 -69.77,-18.77l-75.61 0 0 370.33 27.61 0 0 -92.41 12.86 0c10.39,0 19.94,3.43 28.62,10.3l86.93 71.49c9.15,7.08 19.54,10.62 31.21,10.62 5.37,0 11.05,-1.54 17.05,-4.63 6.02,-3.08 10.04,-7.83 12.1,-14.22 -0.58,0.68 -3.1,1.02 -7.55,1.02 -10.64,0 -20.63,-3.31 -30.01,-9.94z"></path> <path class="fil0" d="M1724.47 383.28l0 -206.96 -27.77 0 0 200.44c0,11.08 1.9,18.97 5.73,23.66 3.84,4.69 9.86,7.02 18.1,7.02 7.65,0 13.83,-3.14 18.51,-9.42 -0.69,0.68 -1.88,1.03 -3.59,1.03 -7.32,0 -10.98,-5.25 -10.98,-15.77z"></path> <path class="fil0" d="M1827.52 185.59c7.55,-2.86 14.76,-4.29 21.61,-4.29 1.83,0 3.6,0.12 5.31,0.34 10.85,2.3 19.83,7.11 26.92,14.49 7.09,7.36 12.46,15.24 16.11,23.58l12.69 -16.46c-12.35,-13.37 -29.04,-21.95 -50.07,-25.72 -5.25,-0.68 -10.33,-1.03 -15.25,-1.03 -14.97,0 -29.44,3.95 -43.38,11.84 -13.94,7.88 -22.45,20.22 -25.55,37.02 -0.35,1.83 -0.51,4.12 -0.51,6.86 0,15.43 6.06,29.14 18.17,41.16 2.75,2.74 5.77,5.25 9.1,7.53l60.69 43.72c4.91,3.32 8.96,7.44 12.17,12.34 3.88,7.32 5.83,14.41 5.83,21.26 0,14.98 -7.03,27.27 -21.09,36.87 -7.44,5.03 -15.54,7.55 -24.35,7.55 -2.17,0 -4.4,-0.17 -6.69,-0.52 -10.63,-1.83 -19.29,-5.85 -25.97,-12.08 -6.68,-6.24 -12.19,-14.32 -16.55,-24.26l-12 15.43c12.22,13.02 28.69,21.37 49.38,25.03 5.25,0.69 10.34,1.02 15.26,1.02 14.86,0 29.25,-3.93 43.21,-11.82 13.95,-7.89 22.51,-20.23 25.71,-37.04l0.18 -1.21c0.22,-1.94 0.34,-3.82 0.34,-5.64 0,-16.24 -6.69,-30.52 -20.05,-42.86 -2.87,-2.64 -15.56,-11.96 -38.07,-27.96l-34.81 -24.52c-12.46,-10.63 -19.15,-20.62 -20.06,-30.01l-0.17 -3.94c0,-7.77 2.94,-14.91 8.83,-21.43 5.89,-6.51 13.57,-11.59 23.06,-15.25z"></path> <path class="fil0" d="M2111.78 398.02c-1.71,-0.68 -3.19,-2.13 -4.44,-4.29 -1.27,-2.18 -1.89,-5.31 -1.89,-9.42l0 -120.88c-0.35,-12 -1.21,-21.77 -2.57,-29.33 -5.38,-25.02 -16.81,-41.65 -34.3,-49.89 -11.09,-5.14 -24.36,-7.71 -39.78,-7.71 -26.06,0 -44.69,8.97 -55.88,26.91l0 -174.53 -27.62 0 0 378.56 27.62 0 0 -173.17c0,-9.25 2.19,-17.91 6.59,-25.97 4.4,-8.05 10.57,-14.5 18.52,-19.37 7.94,-4.85 16.6,-7.29 25.96,-7.29 10.52,0 20.08,2.98 28.65,8.91l0.17 0 3.25 2.58c4.46,3.42 9.1,10.18 13.89,20.23 4.81,10.06 7.32,23.95 7.55,41.67l0 121.73c0,11.08 1.9,18.96 5.74,23.65 3.83,4.7 9.86,7.03 18.08,7.03 7.67,0 13.9,-3.13 18.7,-9.42 -0.69,0.68 -1.95,1.03 -3.78,1.03 -1.25,0 -2.74,-0.35 -4.46,-1.03z"></path> <path class="fil0" d="M2184.14 383.28l0 -206.96 -27.77 0 0 200.44c0,11.08 1.9,18.97 5.73,23.66 3.83,4.69 9.86,7.02 18.1,7.02 7.65,0 13.83,-3.14 18.51,-9.42 -0.69,0.68 -1.88,1.03 -3.59,1.03 -7.32,0 -10.98,-5.25 -10.98,-15.77z"></path> <path class="fil0" d="M2171.35 153.82c0,-17.09 13.86,-30.95 30.95,-30.95 -17.09,0 -30.95,-13.85 -30.95,-30.95 0,17.1 -13.85,30.95 -30.94,30.95 17.09,0 30.94,13.86 30.94,30.95z"></path> <path class="fil0" d="M1710.92 91.92c0,17.1 -13.85,30.95 -30.94,30.95 17.09,0 30.94,13.86 30.94,30.95 0,-17.09 13.86,-30.95 30.95,-30.95 -17.09,0 -30.95,-13.85 -30.95,-30.95z"></path> <path class="fil0" d="M929.28 640.41c-4.28,0.36 -7.98,0.59 -11.08,0.59 -17.52,0 -30.8,-6.93 -41.52,-21.12 10.62,-7.26 17.19,-19.13 17.19,-32.63 0.46,-21.81 -18.24,-39.69 -39.56,-39.34 -21.58,-0.35 -39.92,17.53 -39.46,39.34 -0.46,21.58 17.88,39.79 39.46,39.33 5.2,0 10.27,-0.92 14.98,-2.88 11.54,16.25 27.92,25.01 47.77,25.01 3.92,0 7.94,-0.32 12.22,-1.14l0 -7.16zm-74.87 -22.14c-17.16,0 -30.21,-13.5 -30.21,-31.15 0,-17.63 12.92,-30.9 30.11,-30.9 17.17,0 30.21,13.37 30.21,31.03 0.36,17.16 -13.37,31.35 -30.11,31.02zm63.34 -15.33c0,14.19 10.13,23.64 23.28,23.64 13.04,0 23.18,-9.45 23.18,-23.64l0 -33.81 -8.86 0 0 34.37c0,8.89 -6.12,14.87 -14.32,14.87 -8.31,0 -14.52,-5.75 -14.52,-14.87l0 -34.37 -8.76 0 0 33.81zm116.63 -12.23c0,-14.78 -8.66,-22.85 -21.94,-22.85 -9.35,0 -17.75,4.05 -22.82,12.36l5.89 4.84c4.61,-6.02 9.54,-8.99 16.38,-8.99 8.4,0 13.6,4.93 13.6,14.18l0 4.84 -17.76 0c-12.13,0 -20.2,6.12 -20.2,15.67 0,9.71 8.07,15.82 19.62,15.82 8.17,0 14.77,-3.01 18.93,-8.53l0 7.25 8.3 0 0 -34.59zm-8.89 13.02c0,8.66 -7.98,15.46 -17.2,15.46 -6.57,0 -11.64,-3.24 -11.64,-8.89 0,-5.17 4.25,-7.95 12.1,-7.95l16.74 0 0 1.38zm36.92 21.57l8.89 0 0 -86.51 -8.89 0 0 86.51zm37.6 0l8.9 0 0 -56.17 -8.9 0 0 56.17zm-2.19 -77.61c0,3.69 3.01,6.44 6.67,6.44 3.7,0 6.61,-2.75 6.61,-6.44 0,-3.6 -3.01,-6.48 -6.61,-6.48 -3.66,0 -6.67,2.88 -6.67,6.48zm70.47 70.13c-2.88,0.45 -5.3,0.68 -7.49,0.68 -7.72,0 -11.87,-2.77 -11.87,-10.72l0 -30.7 17.53 0 0 -7.95 -17.53 0 0 -15.33 -8.89 0 0 15.33 -9.45 0 0 7.95 9.45 0 0 31.26c0,12.35 7.26,18.24 18.93,18.24 2.65,0 5.75,-0.46 9.32,-1.28l0 -7.48zm62.39 -48.69l-18.54 44.76 -18.57 -44.76 -9.58 0 23.28 54.44 -2.98 6.7c-2.91,6.8 -6.83,9 -12.68,9 -1.64,0 -3.93,-0.23 -6.84,-0.59l0 7.52c2.91,0.78 5.79,1.14 8.67,1.14 8.66,0 14.78,-4.38 19.03,-14.19l27.69 -64.02 -9.48 0zm68.74 18.12c-0.33,21.8 17.78,39.66 39.56,39.33 7.52,0 14.32,-1.73 20.43,-5.3 6.21,-3.59 11.05,-8.43 14.42,-14.42l0 -20.3 -34.95 0 0 8.08 25.96 0 0 10.26c-5.2,8.31 -14.32,13.6 -25.4,13.6 -17.53,0.33 -31,-13.96 -30.67,-31.38 -0.33,-17.17 12.91,-31.26 30.21,-30.9 10.17,0 18.34,4.61 24.23,12.55l6.8 -5.29c-7.03,-9.81 -18.12,-15.57 -31.03,-15.57 -21.78,-0.35 -39.89,17.53 -39.56,39.34zm149.16 12.68c0.46,-2.32 0.69,-4.51 0.69,-6.7 0,-14.88 -11.09,-25.37 -25.6,-25.37 -16.06,0 -28.74,13.14 -28.74,29.42 0,16.48 13.04,29.3 29.78,29.3 8.86,0 16.61,-3.69 22.46,-9.81l-5.16 -6.01c-5.07,5.1 -10.86,7.61 -17.2,7.61 -11.08,0 -19.62,-7.35 -20.63,-18.44l44.4 0zm-44.07 -7.84c1.96,-9.68 9.58,-16.16 18.93,-16.16 9.35,0 16.61,6.12 16.7,16.16l-35.63 0zm151.55 -2.1c0,-13.37 -7.49,-22.13 -20.4,-22.13 -8.31,0 -15.11,3.82 -19.26,9.68 -3.24,-6.08 -9.12,-9.68 -17.33,-9.68 -6.9,0 -12.69,2.55 -16.71,7.16l0 -5.89 -8.3 0 0 56.17 8.89 0 0 -34.13c0,-8.89 5.85,-15.1 14.29,-15.1 8.17,0 13.37,5.98 13.37,15.1l0 34.13 8.89 0 0 -34.95c0,-7.94 5.99,-14.28 14.42,-14.28 8.31,0 13.24,5.98 13.24,15.1l0 34.13 8.9 0 0 -35.31zm22.73 25.64c4.93,6.44 12.55,10.95 21.9,10.95 5.53,0 10.14,-1.41 13.96,-4.28 3.8,-2.88 5.76,-7.03 5.76,-12.23 0,-7.72 -4.38,-12.1 -14.88,-16.61l-5.2 -2.19c-6.8,-2.88 -9.09,-4.61 -9.09,-8.18 0,-4.51 3.8,-7.02 9.32,-7.02 5.2,0 10.04,2.42 13.87,6.21l5.39 -5.53c-4.61,-5.56 -10.95,-8.89 -18.8,-8.89 -10.72,0 -18.9,5.88 -18.9,15.69 0,7.49 4.61,11.77 13.96,15.57l5.43 2.32c6.9,2.74 9.78,4.48 9.78,8.99 0,4.97 -4.61,7.94 -10.73,7.94 -6.34,0 -10.72,-3.1 -16.15,-8.63l-5.62 5.89zm97.57 2.19c-2.88,0.45 -5.3,0.68 -7.49,0.68 -7.72,0 -11.87,-2.77 -11.87,-10.72l0 -30.7 17.53 0 0 -7.95 -17.53 0 0 -15.33 -8.89 0 0 15.33 -9.45 0 0 7.95 9.45 0 0 31.26c0,12.35 7.26,18.24 18.93,18.24 2.65,0 5.75,-0.46 9.32,-1.28l0 -7.48zm17.29 -20.67c-0.23,15.83 13.27,29.66 29.3,29.3 16.05,0.36 29.88,-13.47 29.55,-29.3 0.33,-16.02 -13.4,-29.52 -29.42,-29.29 -16.02,-0.33 -29.76,13.27 -29.43,29.29zm49.73 0.13c0,11.77 -8.99,20.99 -20.43,20.99 -11.42,0 -20.18,-9.22 -20.18,-20.99 0,-12.13 8.76,-21.21 20.31,-21.21 11.41,0 20.3,9.08 20.3,21.21zm80.4 -7.29c0,-13.24 -7.84,-22.13 -20.89,-22.13 -7.03,0 -13.14,2.65 -17.29,7.26l0 -5.99 -8.31 0 0 56.17 8.89 0 0 -34.26c0,-8.76 6.09,-14.97 14.75,-14.97 8.67,0 13.96,6.11 13.96,14.97l0 34.26 8.89 0 0 -35.31zm77.63 9.94c0.46,-2.32 0.69,-4.51 0.69,-6.7 0,-14.88 -11.09,-25.37 -25.6,-25.37 -16.06,0 -28.74,13.14 -28.74,29.42 0,16.48 13.04,29.3 29.78,29.3 8.86,0 16.61,-3.69 22.46,-9.81l-5.16 -6.01c-5.07,5.1 -10.86,7.61 -17.2,7.61 -11.08,0 -19.62,-7.35 -20.63,-18.44l44.4 0zm-44.07 -7.84c1.96,-9.68 9.58,-16.16 18.93,-16.16 9.35,0 16.61,6.12 16.7,16.16l-35.63 0zm64.25 23.54c4.94,6.44 12.56,10.95 21.91,10.95 5.52,0 10.13,-1.41 13.96,-4.28 3.79,-2.88 5.75,-7.03 5.75,-12.23 0,-7.72 -4.38,-12.1 -14.88,-16.61l-5.19 -2.19c-6.8,-2.88 -9.09,-4.61 -9.09,-8.18 0,-4.51 3.79,-7.02 9.31,-7.02 5.2,0 10.04,2.42 13.87,6.21l5.39 -5.53c-4.61,-5.56 -10.95,-8.89 -18.8,-8.89 -10.72,0 -18.9,5.88 -18.9,15.69 0,7.49 4.62,11.77 13.97,15.57l5.42 2.32c6.9,2.74 9.78,4.48 9.78,8.99 0,4.97 -4.61,7.94 -10.73,7.94 -6.34,0 -10.72,-3.1 -16.15,-8.63l-5.62 5.89z"></path> <g id="_105553300219520"> <path class="fil0" d="M431.43 582.22c-10.84,0 -20.52,-3.3 -29.02,-9.88l-119.78 -97.33c-8.08,-6.38 -16.96,-9.56 -26.63,-9.56l-11.95 0 0 184.44 129.37 0c28.06,-28.05 46.17,-46.17 70.39,-70.39 -4.31,1.79 -8.44,2.72 -12.38,2.72z"></path> <path class="fil0" d="M373.42 37.11l-284.41 0c-34.76,34.76 -54.25,54.25 -89.01,89.02l0 63.53c5.51,-8.94 11.76,-17.26 18.76,-24.97 14.29,-15.73 30.87,-28.06 49.74,-36.98 18.86,-8.93 39.08,-13.4 60.65,-13.4 20.52,0 39.81,4.04 57.88,12.12 18.06,8.07 34.11,19.29 48.14,33.64l-3.19 25.99c-11.9,-20.41 -26.75,-36.57 -44.56,-48.47 -17.8,-11.9 -37.22,-17.86 -58.27,-17.86 -17.75,0 -34.4,4.33 -49.97,12.99 -15.57,8.67 -29.26,20.63 -41.05,35.87 -11.8,15.26 -21.02,32.95 -27.66,53.1 -6.64,20.13 -9.97,41.74 -9.97,64.79 0,23.07 3.33,44.69 9.97,64.88 6.64,20.2 15.86,37.92 27.66,53.17 11.79,15.25 25.48,27.21 41.05,35.87 15.57,8.66 32.22,12.99 49.97,12.99 17.33,0 33.61,-4.12 48.87,-12.35 15.25,-8.24 28.72,-19.63 40.41,-34.19l0 -89.6 -54.68 0 0 -5.42 80.51 0 0 91.03c-7.76,9.35 -16.37,17.64 -25.83,24.87 -26.68,20.61 -56.44,30.93 -89.28,30.93 -21.57,0 -41.79,-4.46 -60.65,-13.39 -18.87,-8.93 -35.45,-21.27 -49.74,-36.99 -7,-7.71 -13.25,-16.04 -18.76,-24.97l0 177.57c34.76,34.76 54.25,54.25 89.01,89.01l129.37 0 0 -204.72c2.93,-2 5.87,-4.01 8.73,-6.22 5.95,-4.55 11.55,-9.66 16.94,-15.05l0 35.97 44.48 0c32.94,0 58.34,-12.07 76.2,-36.19 16.57,-22.54 24.86,-51.7 24.86,-87.53 0,-35.8 -8.29,-64.93 -24.86,-87.35 -17.86,-24.23 -43.2,-36.35 -76.04,-36.35l-44.64 0 0 85.2 -25.67 0 0 -90.62 70.31 0c23.7,0 45.32,5.82 64.88,17.45 19.55,11.64 35.15,27.22 46.78,46.72 11.64,19.5 17.46,41.15 17.46,64.95 0,21.69 -4.89,41.67 -14.66,59.95 -9.79,18.28 -22.99,33.37 -39.62,45.28 -16.63,11.9 -35.52,19.44 -56.67,22.63 4.14,1.81 7.92,4.14 11.31,7.02l105.45 85.36c8.71,6.16 18.02,9.24 27.89,9.24 4.15,0 6.48,-0.31 7.02,-0.95l-0.07 0.17c1.32,-1.31 2.62,-2.61 3.97,-3.97l0 -434.75c-34.76,-34.77 -54.25,-54.26 -89.01,-89.02z"></path> </g> <path class="fil0" d="M2203.9 24.64c1.81,0 3.2,-0.43 4.15,-1.29 0.96,-0.86 1.43,-1.95 1.43,-3.29 0,-1.53 -0.49,-2.65 -1.5,-3.37 -1,-0.72 -2.36,-1.07 -4.08,-1.07l-6.74 0 0 9.02 6.74 0zm-10.75 -12.6l11.19 0c2.57,0 4.77,0.67 6.58,2 1.8,1.33 2.72,3.25 2.72,5.74 0,2.09 -0.6,3.77 -1.79,5 -1.19,1.25 -2.65,2.1 -4.37,2.58l7.01 9.74 -5.01 0 -6.31 -9.17 -6.01 0 0 9.17 -4.01 0 0 -25.06zm9.32 35.37c3.15,0 6.06,-0.58 8.73,-1.78 2.68,-1.2 4.99,-2.8 6.95,-4.8 1.96,-2.01 3.51,-4.37 4.66,-7.09 1.14,-2.72 1.71,-5.61 1.71,-8.67l0 -0.15c0,-3.05 -0.54,-5.9 -1.64,-8.58 -1.09,-2.68 -2.64,-5.02 -4.65,-7.03 -2.01,-2.01 -4.35,-3.6 -7.03,-4.8 -2.67,-1.19 -5.58,-1.79 -8.73,-1.79 -3.15,0 -6.06,0.6 -8.75,1.79 -2.67,1.2 -4.98,2.79 -6.94,4.8 -1.96,2.01 -3.51,4.37 -4.65,7.1 -1.14,2.72 -1.72,5.61 -1.72,8.66l0 0.15c0,3.05 0.56,5.91 1.65,8.59 1.09,2.67 2.64,5.01 4.65,7.02 2.01,2 4.34,3.6 7.01,4.8 2.69,1.2 5.6,1.78 8.75,1.78zm0 2.73c-3.54,0 -6.81,-0.67 -9.82,-2.01 -3.01,-1.34 -5.63,-3.12 -7.88,-5.37 -2.23,-2.24 -4.01,-4.87 -5.28,-7.88 -1.31,-3 -1.94,-6.23 -1.94,-9.66l0 -0.15c0,-3.44 0.63,-6.66 1.94,-9.67 1.27,-3.01 3.05,-5.65 5.28,-7.95 2.25,-2.29 4.9,-4.1 7.95,-5.44 3.05,-1.34 6.31,-2.01 9.75,-2.01 3.53,0 6.81,0.67 9.82,2.01 3,1.34 5.62,3.12 7.87,5.38 2.24,2.24 4.01,4.86 5.29,7.87 1.29,3 1.94,6.23 1.94,9.66l0 0.15c0,3.45 -0.65,6.66 -1.94,9.67 -1.28,3.01 -3.05,5.65 -5.29,7.95 -2.25,2.29 -4.89,4.1 -7.96,5.44 -3.05,1.34 -6.29,2.01 -9.73,2.01z"></path> </g> </svg> 