<svg width="18" height="19" viewBox="0 0 18 19" fill="none" xmlns="http://www.w3.org/2000/svg">
<path d="M17.9855 0.869491L17.5755 3.86249C16.5095 3.78049 15.7305 3.99916 15.2385 4.51849C14.7465 5.03783 14.4459 5.73483 14.3365 6.60949C14.2272 7.48416 14.1999 8.42716 14.2545 9.43849H17.9855V18.0895H10.9745V7.79849C10.9745 5.28382 11.6032 3.39783 12.8605 2.14049C14.1452 0.883158 15.8535 0.459491 17.9855 0.869491ZM7.57155 0.869491L7.16155 3.86249C6.09555 3.78049 5.31655 3.99916 4.82455 4.51849C4.33255 5.03783 4.03188 5.73483 3.92255 6.60949C3.81321 7.48416 3.78588 8.42716 3.84055 9.43849H7.57155V18.0895H0.560547V7.79849C0.560547 5.28382 1.18921 3.39783 2.44655 2.14049C3.73121 0.883158 5.43955 0.459491 7.57155 0.869491Z" fill="white"/>
</svg>
