<svg width="50" height="55" viewBox="0 0 50 55" fill="none" xmlns="http://www.w3.org/2000/svg">
<path d="M42.3007 29.7916C43.8126 27.4782 44.7253 24.7818 44.947 21.9737C45.1687 19.1655 44.6915 16.3448 43.5634 13.7954C42.4354 11.2459 40.6963 9.0578 38.5212 7.45121C36.3462 5.84462 33.8119 4.87627 31.1735 4.64363C28.5351 4.41099 25.8857 4.92227 23.492 6.12601C21.0982 7.32975 19.0446 9.18346 17.5378 11.5006C16.0311 13.8177 15.1243 16.5164 14.9089 19.3251C14.6934 22.1338 15.1769 24.9533 16.3106 27.4999" stroke="#264A3F" stroke-width="2" stroke-linecap="round" stroke-linejoin="round"/>
<path d="M6.25 32.0833H11.4063C12.0392 32.0833 12.6636 32.2345 13.2298 32.5278L17.6261 34.792C18.1923 35.083 18.8167 35.2343 19.4518 35.2343H21.6951C23.8653 35.2343 25.6264 37.047 25.6264 39.2837C25.6264 39.3753 25.5682 39.4532 25.4843 39.4785L20.0137 41.0895C19.0321 41.3782 17.9853 41.2772 17.0685 40.8053L12.3686 38.3853M25.6264 37.8124L35.5148 34.5789C36.3756 34.2977 37.2979 34.3132 38.1501 34.6231C39.0022 34.9329 39.7406 35.5214 40.2598 36.3045C41.0543 37.4733 40.7313 39.1507 39.5731 39.8612L23.3938 49.8001C22.8879 50.1117 22.3277 50.3104 21.7473 50.3841C21.1669 50.4577 20.5785 50.4049 20.018 50.2287L6.25 45.8791" stroke="#264A3F" stroke-width="2" stroke-linecap="round" stroke-linejoin="round"/>
<path d="M29.9444 27.0174L28.9375 26.009C25.3611 22.4417 23 20.0812 23 17.2014C23 14.841 24.6806 13 26.8194 13C28.0278 13 29.1875 13.6187 29.9444 14.5889C30.7014 13.6187 31.8611 13 33.0694 13C35.2083 13 36.8889 14.841 36.8889 17.2014C36.8889 20.0812 34.5278 22.4417 30.9514 26.009L29.9444 27.0174Z" fill="#264A3F"/>
</svg>
