<svg width="41" height="41" viewBox="0 0 41 41" fill="none" xmlns="http://www.w3.org/2000/svg">
<g clip-path="url(#clip0_876_1751)">
<path fill-rule="evenodd" clip-rule="evenodd" d="M16.6816 1.82938L14.9468 3.10294C14.6412 3.34678 14.3173 3.56694 13.9782 3.76151C13.7498 3.88292 13.5104 3.98245 13.2633 4.05876C12.9839 4.14332 12.6944 4.18688 12.1127 4.27657L9.98582 4.60201C8.30738 4.85826 7.46688 4.98894 6.80832 5.38101C6.21894 5.72694 5.72951 6.21894 5.38101 6.80832C4.98894 7.47457 4.86082 8.31507 4.60201 9.98582L4.27657 12.1127C4.18688 12.6944 4.14332 12.9865 4.05876 13.2658C3.98188 13.5135 3.8828 13.751 3.76151 13.9782C3.62313 14.2344 3.45144 14.4728 3.10294 14.9468L1.82938 16.6816C0.824882 18.05 0.322632 18.7342 0.127882 19.4748C-0.0400231 20.1365 -0.0400231 20.8297 0.127882 21.4914C0.320069 22.2397 0.824882 22.9264 1.82938 24.2846L3.10294 26.0194C3.45144 26.4934 3.62569 26.7318 3.76151 26.988C3.88109 27.2169 3.98017 27.4561 4.05876 27.7055C4.14332 27.9823 4.18688 28.2718 4.27657 28.8535L4.60201 30.9804C4.85826 32.6588 4.98894 33.4968 5.38101 34.1579C5.72694 34.7473 6.21894 35.2393 6.80832 35.5852C7.47457 35.9773 8.31507 36.1054 9.98582 36.3642L12.1127 36.6896C12.6944 36.7793 12.9865 36.8254 13.2633 36.91C13.511 36.9852 13.7493 37.0843 13.9782 37.2073C14.2344 37.3431 14.4728 37.5148 14.9468 37.8658L16.6816 39.1394C18.05 40.1439 18.7342 40.6461 19.4748 40.8409C20.1359 41.0126 20.8303 41.0126 21.4914 40.8409C22.2397 40.6461 22.9264 40.1439 24.2846 39.1394L26.0194 37.8658C26.4934 37.5173 26.7318 37.3431 26.988 37.2073C27.2169 37.0843 27.4552 36.9852 27.7029 36.91C27.9823 36.8254 28.2718 36.7819 28.8535 36.6896L30.9804 36.3642C32.6588 36.1079 33.4968 35.9798 34.1579 35.5852C34.7473 35.2393 35.2393 34.7473 35.5852 34.1579C35.9773 33.4916 36.1054 32.6511 36.3642 30.9804L36.6896 28.8535C36.7793 28.2718 36.8229 27.9823 36.9074 27.7029C36.9843 27.4552 37.0834 27.2169 37.2047 26.988C37.3431 26.7318 37.5148 26.4934 37.8633 26.0194L39.1368 24.2846C40.1413 22.9162 40.6436 22.2346 40.8383 21.4914C41.0062 20.8297 41.0062 20.1365 40.8383 19.4748C40.6461 18.7265 40.1413 18.0398 39.1368 16.6816L37.8633 14.9468C37.6194 14.6412 37.3993 14.3173 37.2047 13.9782C37.0833 13.7498 36.9837 13.5104 36.9074 13.2633C36.8057 12.8858 36.7329 12.5012 36.6896 12.1127L36.3642 9.98582C36.1079 8.30738 35.9773 7.46688 35.5852 6.80832C35.2358 6.22104 34.7452 5.7304 34.1579 5.38101C33.4916 4.98894 32.6511 4.86082 30.9804 4.60201L28.8535 4.27657C28.465 4.23332 28.0804 4.16051 27.7029 4.05876C27.4552 3.98399 27.2157 3.8844 26.988 3.76151C26.6488 3.56694 26.325 3.34678 26.0194 3.10294L24.2846 1.82938C22.9162 0.824882 22.232 0.322632 21.4914 0.127882C20.8297 -0.0400231 20.1365 -0.0400231 19.4748 0.127882C18.7265 0.322632 18.0398 0.824882 16.6816 1.82938ZM30.3398 15.6925C30.4881 15.5116 30.5986 15.3028 30.6648 15.0785C30.731 14.8541 30.7516 14.6188 30.7253 14.3863C30.6991 14.1539 30.6265 13.9291 30.5118 13.7252C30.3972 13.5213 30.2428 13.3424 30.0579 13.1992C29.6817 12.9049 29.2054 12.7691 28.7306 12.8208C28.2558 12.8725 27.8199 13.1076 27.5159 13.4759L19.034 23.8797L14.4984 20.3947C14.1279 20.0932 13.6543 19.9482 13.1784 19.9908C12.7026 20.0334 12.2623 20.2602 11.9513 20.6228C11.7993 20.8006 11.6845 21.007 11.6137 21.23C11.5429 21.4529 11.5175 21.6878 11.539 21.9207C11.5605 22.1536 11.6285 22.3798 11.7389 22.586C11.8493 22.7922 11.9999 22.9742 12.1819 23.1212L18.1269 27.7593C18.5023 28.0647 18.9833 28.2091 19.4648 28.1611C19.9463 28.1131 20.3893 27.8765 20.6971 27.5031L30.3321 15.6643L30.3398 15.6925Z" fill="#264A3F"/>
</g>
<defs>
<clipPath id="clip0_876_1751">
<rect width="41" height="41" fill="white"/>
</clipPath>
</defs>
</svg>
