<svg width="41" height="41" viewBox="0 0 41 41" fill="none" xmlns="http://www.w3.org/2000/svg">
<path d="M1.58776 1.46191L1.5876 1.46312C21.5785 4.42561 31.369 15.075 33.4042 23.7256C33.2366 24.2043 33.0442 24.61 32.8382 24.9242C31.4537 27.0369 27.8316 28.1334 24.698 27.2142C25.1772 25.6326 25.5093 24.0243 25.6645 22.4799C18.0203 23.1347 8.6444 23.1542 1.54443 20.6668C4.88585 28.2996 9.49819 33.8369 14.756 39.0912C16.2211 38.9179 17.6233 38.1823 18.907 37.0596C25.7311 39.8357 33.9669 36.855 37.0645 32.2005C40.822 26.555 42.9959 6.77406 23.6545 1.46199H18.643C31.4816 5.8562 34.3166 14.8943 33.9838 20.6031C31.0089 13.1056 22.9586 5.23968 8.96896 1.46199H1.58792L1.58776 1.46191Z" fill="#264A3F"/>
</svg>
