<svg width="37" height="37" viewBox="0 0 37 37" fill="none" xmlns="http://www.w3.org/2000/svg">
<path d="M17.6043 32.833L26.3118 15.4001H20.2918V4.16634L11.3335 21.5993H17.6043V32.833ZM18.5002 0.583008C23.4272 0.583008 27.6377 2.37467 31.1314 5.86842C34.6252 9.36217 36.4168 13.5726 36.4168 18.4997C36.4168 23.4268 34.6252 27.6372 31.1314 31.1309C27.6377 34.6247 23.4272 36.4163 18.5002 36.4163C13.5731 36.4163 9.36266 34.6247 5.86891 31.1309C2.37516 27.6372 0.583496 23.4268 0.583496 18.4997C0.583496 13.5726 2.37516 9.36217 5.86891 5.86842C9.36266 2.37467 13.5731 0.583008 18.5002 0.583008Z" fill="#264A3F"/>
</svg>
