<svg width="43" height="43" viewBox="0 0 43 43" fill="none" xmlns="http://www.w3.org/2000/svg">
<g clip-path="url(#clip0_876_1922)">
<path d="M21.5 0C9.64454 0 0 9.64454 0 21.5C0 33.3555 9.64454 43 21.5 43C33.3555 43 43 33.3555 43 21.5H38.1625C38.1625 30.6877 30.6877 38.1625 21.5 38.1625C12.3123 38.1625 4.8375 30.6877 4.8375 21.5C4.8375 12.3123 12.3123 4.8375 21.5 4.8375V0ZM34.7583 4.62787L21.3119 21.4176L15.0285 16.2683L11.4416 20.6328L19.9359 27.5988C20.2244 27.8369 20.5575 28.0151 20.9157 28.1231C21.2738 28.231 21.6499 28.2666 22.022 28.2278C22.394 28.1889 22.7546 28.0764 23.0827 27.8967C23.4109 27.7171 23.6999 27.4739 23.9331 27.1814L39.1694 8.15925L34.7583 4.62787Z" fill="#264A3F"/>
</g>
<defs>
<clipPath id="clip0_876_1922">
<rect width="43" height="43" fill="white"/>
</clipPath>
</defs>
</svg>
