<svg width="46" height="37" viewBox="0 0 46 37" fill="none" xmlns="http://www.w3.org/2000/svg">
<g clip-path="url(#clip0_876_1918)">
<path d="M44.85 25.4375H43.7V17.6256C43.7 16.7078 43.3334 15.8262 42.6866 15.1758L35.5062 7.95645C34.8594 7.30605 33.9825 6.9375 33.0697 6.9375H29.9V3.46875C29.9 1.55371 28.3547 0 26.45 0H8.05C6.14531 0 4.6 1.55371 4.6 3.46875V6.9375H0.575C0.25875 6.9375 0 7.19766 0 7.51562V8.67188C0 8.98984 0.25875 9.25 0.575 9.25H20.125C20.4412 9.25 20.7 9.51016 20.7 9.82812V10.9844C20.7 11.3023 20.4412 11.5625 20.125 11.5625H2.875C2.55875 11.5625 2.3 11.8227 2.3 12.1406V13.2969C2.3 13.6148 2.55875 13.875 2.875 13.875H17.825C18.1412 13.875 18.4 14.1352 18.4 14.4531V15.6094C18.4 15.9273 18.1412 16.1875 17.825 16.1875H0.575C0.25875 16.1875 0 16.4477 0 16.7656V17.9219C0 18.2398 0.25875 18.5 0.575 18.5H15.525C15.8412 18.5 16.1 18.7602 16.1 19.0781V20.2344C16.1 20.5523 15.8412 20.8125 15.525 20.8125H4.6V30.0625C4.6 33.8926 7.69062 37 11.5 37C15.3094 37 18.4 33.8926 18.4 30.0625H27.6C27.6 33.8926 30.6906 37 34.5 37C38.3094 37 41.4 33.8926 41.4 30.0625H44.85C45.4825 30.0625 46 29.5422 46 28.9062V26.5938C46 25.9578 45.4825 25.4375 44.85 25.4375ZM11.5 33.5312C9.59531 33.5312 8.05 31.9775 8.05 30.0625C8.05 28.1475 9.59531 26.5938 11.5 26.5938C13.4047 26.5938 14.95 28.1475 14.95 30.0625C14.95 31.9775 13.4047 33.5312 11.5 33.5312ZM34.5 33.5312C32.5953 33.5312 31.05 31.9775 31.05 30.0625C31.05 28.1475 32.5953 26.5938 34.5 26.5938C36.4047 26.5938 37.95 28.1475 37.95 30.0625C37.95 31.9775 36.4047 33.5312 34.5 33.5312ZM40.25 18.5H29.9V10.4062H33.0697L40.25 17.6256V18.5Z" fill="#264A3F"/>
</g>
<defs>
<clipPath id="clip0_876_1918">
<rect width="46" height="37" fill="white"/>
</clipPath>
</defs>
</svg>
