<svg width="46" height="46" viewBox="0 0 46 46" fill="none" xmlns="http://www.w3.org/2000/svg">
<path d="M17.8921 22.0452H22.0513C23.1839 22.0452 24.3055 22.2683 25.3519 22.7018C26.3983 23.1352 27.3492 23.7705 28.1501 24.5715C28.951 25.3724 29.5863 26.3232 30.0197 27.3696C30.4532 28.416 30.6763 29.5376 30.6763 30.6702H17.2577V32.5869H32.591V30.6702C32.5832 28.6314 31.9948 26.6369 30.8948 24.9202H36.4263C38.2382 24.9199 40.0131 25.4333 41.5452 26.4008C43.0772 27.3683 44.3035 28.7503 45.0819 30.3866C40.549 36.3666 33.2101 40.2555 24.9263 40.2555C19.6344 40.2555 15.1513 39.1247 11.5096 37.1409V19.3082C13.8412 19.642 16.0431 20.5862 17.8921 22.0452ZM9.59294 36.4202C9.59294 36.9286 9.391 37.4161 9.03156 37.7755C8.67211 38.135 8.1846 38.3369 7.67627 38.3369H3.84294C3.3346 38.3369 2.84709 38.135 2.48765 37.7755C2.1282 37.4161 1.92627 36.9286 1.92627 36.4202V19.1702C1.92627 18.6619 2.1282 18.1744 2.48765 17.815C2.84709 17.4555 3.3346 17.2536 3.84294 17.2536H7.67627C8.1846 17.2536 8.67211 17.4555 9.03156 17.815C9.391 18.1744 9.59294 18.6619 9.59294 19.1702V36.4202ZM34.5096 9.58691C36.0346 9.58691 37.4971 10.1927 38.5755 11.271C39.6538 12.3494 40.2596 13.8119 40.2596 15.3369C40.2596 16.8619 39.6538 18.3244 38.5755 19.4028C37.4971 20.4811 36.0346 21.0869 34.5096 21.0869C32.9846 21.0869 31.5221 20.4811 30.4437 19.4028C29.3654 18.3244 28.7596 16.8619 28.7596 15.3369C28.7596 13.8119 29.3654 12.3494 30.4437 11.271C31.5221 10.1927 32.9846 9.58691 34.5096 9.58691ZM21.0929 3.83691C22.6179 3.83691 24.0805 4.44272 25.1588 5.52105C26.2371 6.59938 26.8429 8.06192 26.8429 9.58691C26.8429 11.1119 26.2371 12.5744 25.1588 13.6528C24.0805 14.7311 22.6179 15.3369 21.0929 15.3369C19.5679 15.3369 18.1054 14.7311 17.0271 13.6528C15.9487 12.5744 15.3429 11.1119 15.3429 9.58691C15.3429 8.06192 15.9487 6.59938 17.0271 5.52105C18.1054 4.44272 19.5679 3.83691 21.0929 3.83691Z" fill="#264A3F"/>
</svg>
