<svg width="46" height="46" viewBox="0 0 46 46" fill="none" xmlns="http://www.w3.org/2000/svg">
<path d="M22.9243 11.0508C16.7556 11.0508 10.6067 12.7508 6.49482 16.0169C6.51584 17.3062 6.65815 19.2175 7.33324 20.3501C17.273 14.9292 28.5755 14.9292 38.5153 20.3501C39.1903 19.2175 39.3327 17.3062 39.3537 16.0169C35.2419 12.7508 29.0929 11.0508 22.9243 11.0508ZM40.876 17.884C40.8468 18.1518 40.8114 18.4249 40.764 18.7C40.564 19.8617 40.2058 21.0771 39.3274 21.9326C38.0304 23.607 35.6612 24.6694 32.7816 25.4008C29.8634 26.1421 26.3952 26.5039 22.9243 26.5039C19.4533 26.5039 15.9852 26.142 13.0671 25.4009C10.2004 24.6728 7.84086 23.6159 6.5401 21.9545C5.4635 20.878 5.08158 19.3682 4.94358 18.0142C3.71002 20.463 3.9101 23.5955 5.00395 26.8771C6.288 30.7293 11.6263 34.9492 22.9242 34.9492C34.222 34.9492 39.5606 30.7293 40.8446 26.8771L40.8536 26.8504L40.8644 26.8246C42.2241 23.5263 42.2667 20.3574 40.876 17.884Z" fill="#1E1E1E"/>
</svg>
