<svg width="46" height="46" viewBox="0 0 46 46" fill="none" xmlns="http://www.w3.org/2000/svg">
<path d="M23 19.1663L15.3333 8.43301L18.4 3.83301H27.6L30.6666 8.43301L23 19.1663ZM29.7083 13.033L27.4083 16.2913C31.625 18.0163 34.5 22.0413 34.5 26.833C34.5 29.883 33.2884 32.8081 31.1317 34.9647C28.975 37.1214 26.0499 38.333 23 38.333C19.95 38.333 17.0249 37.1214 14.8682 34.9647C12.7116 32.8081 11.5 29.883 11.5 26.833C11.5 22.0413 14.375 18.0163 18.5916 16.2913L16.2916 13.033C11.1166 15.5247 7.66663 20.6997 7.66663 26.833C7.66663 30.8997 9.2821 34.7998 12.1577 37.6753C15.0332 40.5509 18.9333 42.1663 23 42.1663C27.0666 42.1663 30.9667 40.5509 33.8423 37.6753C36.7178 34.7998 38.3333 30.8997 38.3333 26.833C38.3333 20.6997 34.8833 15.5247 29.7083 13.033Z" fill="#1E1E1E"/>
</svg>
