<svg width="19" height="19" viewBox="0 0 19 19" fill="none" xmlns="http://www.w3.org/2000/svg">
<path d="M16.845 4.423L8.83354 12.4344C8.03575 13.2322 5.66755 13.6017 5.13849 13.0727C4.60943 12.5436 4.97054 10.1754 5.76833 9.37765L13.7882 1.35779C13.986 1.14201 14.2254 0.968566 14.4921 0.847889C14.7588 0.727213 15.0471 0.661795 15.3398 0.655631C15.6324 0.649475 15.9233 0.702667 16.1948 0.812014C16.4663 0.921362 16.7128 1.08461 16.9195 1.29187C17.1262 1.49913 17.2888 1.74611 17.3974 2.01791C17.5059 2.28972 17.5584 2.58071 17.5515 2.87333C17.5445 3.16595 17.4782 3.45415 17.3569 3.72049C17.2354 3.98682 17.0614 4.22582 16.845 4.423Z" stroke="#264A3F" stroke-linecap="round" stroke-linejoin="round"/>
<path d="M8.21328 2.40869H4.01439C3.12349 2.40869 2.26914 2.76259 1.63918 3.39255C1.00923 4.02251 0.655273 4.87691 0.655273 5.76781V14.1656C0.655273 15.0565 1.00923 15.9109 1.63918 16.5408C2.26914 17.1708 3.12349 17.5247 4.01439 17.5247H13.252C15.1079 17.5247 15.7713 16.0131 15.7713 14.1656V9.9667" stroke="#264A3F" stroke-linecap="round" stroke-linejoin="round"/>
</svg>
