<svg width="40" height="40" viewBox="0 0 40 40" fill="none" xmlns="http://www.w3.org/2000/svg">
<path d="M24.1668 25C25.0835 25 25.8685 24.6739 26.5218 24.0217C27.1752 23.3695 27.5013 22.5845 27.5002 21.6667C27.4991 20.7489 27.1729 19.9645 26.5218 19.3134C25.8707 18.6623 25.0857 18.3356 24.1668 18.3334C23.7502 18.3334 23.3546 18.41 22.9802 18.5634C22.6057 18.7167 22.2652 18.9178 21.9585 19.1667L17.5002 16.9167V16.4167L21.9585 14.1667C22.2641 14.4167 22.6046 14.6184 22.9802 14.7717C23.3557 14.925 23.7513 15.0012 24.1668 15C25.0835 15 25.8685 14.6739 26.5218 14.0217C27.1752 13.3695 27.5013 12.5845 27.5002 11.6667C27.4991 10.7489 27.1729 9.96449 26.5218 9.31337C25.8707 8.66226 25.0857 8.3356 24.1668 8.33337C23.2479 8.33115 22.4635 8.65782 21.8135 9.31337C21.1635 9.96893 20.8368 10.7534 20.8335 11.6667V11.9167L16.3752 14.1667C16.0696 13.9167 15.7296 13.715 15.3552 13.5617C14.9807 13.4084 14.5846 13.3323 14.1668 13.3334C13.2502 13.3334 12.4657 13.66 11.8135 14.3134C11.1613 14.9667 10.8346 15.7512 10.8335 16.6667C10.8324 17.5823 11.1591 18.3673 11.8135 19.0217C12.4679 19.6762 13.2524 20.0023 14.1668 20C14.5835 20 14.9796 19.9239 15.3552 19.7717C15.7307 19.6195 16.0707 19.4178 16.3752 19.1667L20.8335 21.4167V21.6667C20.8335 22.5834 21.1602 23.3684 21.8135 24.0217C22.4668 24.675 23.2513 25.0012 24.1668 25ZM3.3335 36.6667V6.66671C3.3335 5.75004 3.66016 4.9656 4.3135 4.31337C4.96683 3.66115 5.75127 3.33449 6.66683 3.33337H33.3335C34.2502 3.33337 35.0352 3.66004 35.6885 4.31337C36.3418 4.96671 36.6679 5.75115 36.6668 6.66671V26.6667C36.6668 27.5834 36.3407 28.3684 35.6885 29.0217C35.0363 29.675 34.2513 30.0012 33.3335 30H10.0002L3.3335 36.6667Z" fill="white"/>
</svg>
