<svg width="53" height="53" viewBox="0 0 53 53" fill="none" xmlns="http://www.w3.org/2000/svg">
<path d="M3.9751 34.4499C3.9751 33.0443 4.53349 31.6962 5.52743 30.7022C6.52137 29.7083 7.86945 29.1499 9.2751 29.1499H26.5001C27.9057 29.1499 29.2538 29.7083 30.2478 30.7022C31.2417 31.6962 31.8001 33.0443 31.8001 34.4499C31.8001 34.4499 31.8001 45.0499 17.8876 45.0499C3.9751 45.0499 3.9751 34.4499 3.9751 34.4499Z" fill="url(#paint0_linear_723_1209)"/>
<path d="M3.9751 34.4499C3.9751 33.0443 4.53349 31.6962 5.52743 30.7022C6.52137 29.7083 7.86945 29.1499 9.2751 29.1499H26.5001C27.9057 29.1499 29.2538 29.7083 30.2478 30.7022C31.2417 31.6962 31.8001 33.0443 31.8001 34.4499C31.8001 34.4499 31.8001 45.0499 17.8876 45.0499C3.9751 45.0499 3.9751 34.4499 3.9751 34.4499Z" fill="url(#paint1_linear_723_1209)"/>
<path d="M3.9751 34.4499C3.9751 33.0443 4.53349 31.6962 5.52743 30.7022C6.52137 29.7083 7.86945 29.1499 9.2751 29.1499H26.5001C27.9057 29.1499 29.2538 29.7083 30.2478 30.7022C31.2417 31.6962 31.8001 33.0443 31.8001 34.4499C31.8001 34.4499 31.8001 45.0499 17.8876 45.0499C3.9751 45.0499 3.9751 34.4499 3.9751 34.4499Z" fill="url(#paint2_linear_723_1209)" fill-opacity="0.75"/>
<path d="M38.425 26.5C40.1821 26.5 41.8672 25.802 43.1096 24.5596C44.3521 23.3172 45.05 21.6321 45.05 19.875C45.05 18.1179 44.3521 16.4328 43.1096 15.1904C41.8672 13.948 40.1821 13.25 38.425 13.25C36.668 13.25 34.9829 13.948 33.7405 15.1904C32.498 16.4328 31.8 18.1179 31.8 19.875C31.8 21.6321 32.498 23.3172 33.7405 24.5596C34.9829 25.802 36.668 26.5 38.425 26.5Z" fill="url(#paint3_linear_723_1209)"/>
<path d="M17.8876 26.4999C20.1718 26.4999 22.3624 25.5925 23.9776 23.9774C25.5928 22.3622 26.5001 20.1716 26.5001 17.8874C26.5001 15.6032 25.5928 13.4126 23.9776 11.7974C22.3624 10.1823 20.1718 9.2749 17.8876 9.2749C15.6035 9.2749 13.4128 10.1823 11.7977 11.7974C10.1825 13.4126 9.27515 15.6032 9.27515 17.8874C9.27515 20.1716 10.1825 22.3622 11.7977 23.9774C13.4128 25.5925 15.6035 26.4999 17.8876 26.4999Z" fill="url(#paint4_linear_723_1209)"/>
<path d="M26.5 31.8C26.5 30.3944 27.0584 29.0463 28.0523 28.0523C29.0463 27.0584 30.3944 26.5 31.8 26.5H45.05C46.4556 26.5 47.8037 27.0584 48.7977 28.0523C49.7916 29.0463 50.35 30.3944 50.35 31.8V45.05C50.35 46.4556 49.7916 47.8037 48.7977 48.7977C47.8037 49.7916 46.4556 50.35 45.05 50.35H31.8C30.3944 50.35 29.0463 49.7916 28.0523 48.7977C27.0584 47.8037 26.5 46.4556 26.5 45.05V31.8Z" fill="url(#paint5_linear_723_1209)"/>
<path d="M33.125 31.7998C32.7736 31.7998 32.4366 31.9394 32.1881 32.1879C31.9396 32.4364 31.8 32.7734 31.8 33.1248C31.8 33.4762 31.9396 33.8132 32.1881 34.0617C32.4366 34.3102 32.7736 34.4498 33.125 34.4498H43.725C44.0765 34.4498 44.4135 34.3102 44.662 34.0617C44.9105 33.8132 45.05 33.4762 45.05 33.1248C45.05 32.7734 44.9105 32.4364 44.662 32.1879C44.4135 31.9394 44.0765 31.7998 43.725 31.7998H33.125ZM33.125 37.0998C32.7736 37.0998 32.4366 37.2394 32.1881 37.4879C31.9396 37.7364 31.8 38.0734 31.8 38.4248C31.8 38.7762 31.9396 39.1132 32.1881 39.3617C32.4366 39.6102 32.7736 39.7498 33.125 39.7498H43.725C44.0765 39.7498 44.4135 39.6102 44.662 39.3617C44.9105 39.1132 45.05 38.7762 45.05 38.4248C45.05 38.0734 44.9105 37.7364 44.662 37.4879C44.4135 37.2394 44.0765 37.0998 43.725 37.0998H33.125ZM33.125 42.3998C32.7736 42.3998 32.4366 42.5394 32.1881 42.7879C31.9396 43.0364 31.8 43.3734 31.8 43.7248C31.8 44.0762 31.9396 44.4132 32.1881 44.6617C32.4366 44.9102 32.7736 45.0498 33.125 45.0498H43.725C44.0765 45.0498 44.4135 44.9102 44.662 44.6617C44.9105 44.4132 45.05 44.0762 45.05 43.7248C45.05 43.3734 44.9105 43.0364 44.662 42.7879C44.4135 42.5394 44.0765 42.3998 43.725 42.3998H33.125Z" fill="url(#paint6_linear_723_1209)"/>
<defs>
<linearGradient id="paint0_linear_723_1209" x1="10.5921" y1="31.2646" x2="16.3055" y2="47.2309" gradientUnits="userSpaceOnUse">
<stop offset="0.125" stop-color="#BD96FF"/>
<stop offset="1" stop-color="#9C6CFE"/>
</linearGradient>
<linearGradient id="paint1_linear_723_1209" x1="17.8876" y1="27.2578" x2="25.9436" y2="53.5962" gradientUnits="userSpaceOnUse">
<stop stop-color="#885EDB" stop-opacity="0"/>
<stop offset="1" stop-color="#E362F8"/>
</linearGradient>
<linearGradient id="paint2_linear_723_1209" x1="38.4251" y1="38.4249" x2="22.5251" y2="38.4249" gradientUnits="userSpaceOnUse">
<stop stop-color="#0A1852" stop-opacity="0.75"/>
<stop offset="1" stop-color="#0A1852" stop-opacity="0"/>
</linearGradient>
<linearGradient id="paint3_linear_723_1209" x1="34.9509" y1="15.0122" x2="41.7031" y2="25.7951" gradientUnits="userSpaceOnUse">
<stop offset="0.125" stop-color="#9C6CFE"/>
<stop offset="1" stop-color="#7A41DC"/>
</linearGradient>
<linearGradient id="paint4_linear_723_1209" x1="13.372" y1="11.5645" x2="22.1488" y2="25.583" gradientUnits="userSpaceOnUse">
<stop offset="0.125" stop-color="#BD96FF"/>
<stop offset="1" stop-color="#9C6CFE"/>
</linearGradient>
<linearGradient id="paint5_linear_723_1209" x1="35.0171" y1="26.5" x2="44.1543" y2="49.0648" gradientUnits="userSpaceOnUse">
<stop stop-color="#B3E0FF"/>
<stop offset="1" stop-color="#8CD0FF"/>
</linearGradient>
<linearGradient id="paint6_linear_723_1209" x1="25.175" y1="22.5248" x2="45.05" y2="45.0498" gradientUnits="userSpaceOnUse">
<stop stop-color="#0FAFFF"/>
<stop offset="1" stop-color="#2764E7"/>
</linearGradient>
</defs>
</svg>
