<svg width="27" height="27" viewBox="0 0 27 27" fill="none" xmlns="http://www.w3.org/2000/svg">
<g clip-path="url(#clip0_723_1197)">
<path d="M0.576162 13.3383C0.575529 15.6069 1.1729 17.8219 2.3088 19.7743L0.467529 26.445L7.34747 24.655C9.25038 25.6829 11.3824 26.2215 13.549 26.2216H13.5547C20.7071 26.2216 26.5293 20.4467 26.5323 13.3485C26.5337 9.90891 25.185 6.67457 22.7345 4.24122C20.2845 1.80808 17.026 0.46739 13.5542 0.46582C6.40099 0.46582 0.579221 6.24047 0.576268 13.3383" fill="url(#paint0_linear_723_1197)"/>
<path d="M0.112852 13.3342C0.112113 15.6844 0.730898 17.9787 1.9073 20.0009L0 26.9107L7.12663 25.0566C9.09025 26.1189 11.3011 26.679 13.5507 26.6799H13.5565C20.9655 26.6799 26.9968 20.6972 27 13.3449C27.0013 9.78174 25.604 6.43113 23.066 3.9106C20.5277 1.3904 17.1527 0.00146512 13.5565 0C6.1463 0 0.115805 5.98186 0.112852 13.3342ZM4.35702 19.6527L4.09092 19.2335C2.97232 17.4687 2.38191 15.4292 2.38275 13.3351C2.38507 7.22397 7.39737 2.25209 13.5608 2.25209C16.5455 2.25335 19.3506 3.40786 21.4604 5.50256C23.5701 7.59747 24.7309 10.3822 24.7302 13.3441C24.7275 19.4552 19.7151 24.4277 13.5565 24.4277H13.5521C11.5468 24.4266 9.58015 23.8923 7.86502 22.8825L7.45685 22.6423L3.22777 23.7425L4.35702 19.6527Z" fill="url(#paint1_linear_723_1197)"/>
<path d="M10.1966 7.75968C9.94491 7.20471 9.68008 7.19351 9.44077 7.18378C9.24481 7.17541 9.0208 7.17604 8.79699 7.17604C8.57298 7.17604 8.209 7.25965 7.90135 7.59297C7.59338 7.92659 6.72559 8.73283 6.72559 10.3726C6.72559 12.0124 7.9293 13.5972 8.0971 13.8198C8.26511 14.042 10.4209 17.5147 13.8351 18.8507C16.6727 19.961 17.2501 19.7401 17.8659 19.6845C18.4819 19.629 19.8534 18.8784 20.1332 18.1002C20.4132 17.322 20.4132 16.6549 20.3293 16.5155C20.2453 16.3767 20.0213 16.2932 19.6854 16.1266C19.3495 15.96 17.6979 15.1536 17.3901 15.0424C17.0821 14.9312 16.8582 14.8757 16.6342 15.2095C16.4101 15.5427 15.7669 16.2932 15.5708 16.5155C15.375 16.7383 15.1789 16.7661 14.8431 16.5993C14.507 16.4321 13.4252 16.0806 12.1417 14.9452C11.1431 14.0618 10.469 12.9708 10.273 12.637C10.0771 12.3038 10.252 12.1232 10.4205 11.9571C10.5714 11.8078 10.7565 11.5679 10.9246 11.3734C11.0921 11.1787 11.148 11.0399 11.26 10.8176C11.3721 10.5951 11.316 10.4004 11.2322 10.2337C11.148 10.067 10.4952 8.41866 10.1966 7.75968Z" fill="white"/>
</g>
<defs>
<linearGradient id="paint0_linear_723_1197" x1="1303.71" y1="2598.38" x2="1303.71" y2="0.46582" gradientUnits="userSpaceOnUse">
<stop stop-color="#1FAF38"/>
<stop offset="1" stop-color="#60D669"/>
</linearGradient>
<linearGradient id="paint1_linear_723_1197" x1="1350" y1="2691.07" x2="1350" y2="0" gradientUnits="userSpaceOnUse">
<stop stop-color="#F9F9F9"/>
<stop offset="1" stop-color="white"/>
</linearGradient>
<clipPath id="clip0_723_1197">
<rect width="27" height="27" fill="white"/>
</clipPath>
</defs>
</svg>
