<svg width="70" height="70" viewBox="0 0 70 70" fill="none" xmlns="http://www.w3.org/2000/svg">
<rect width="70" height="70" rx="35" fill="#CBCCCB" fill-opacity="0.3"/>
<g clip-path="url(#clip0_702_598)">
<path d="M51.8099 19.1417C51.6378 18.9404 51.4241 18.7789 51.1836 18.6681C50.943 18.5573 50.6814 18.5 50.4166 18.5H33.9166C33.6562 18.5003 33.399 18.5561 33.1619 18.6636C32.9248 18.771 32.7134 18.9278 32.5416 19.1233C32.3693 19.3195 32.241 19.5502 32.1651 19.8C32.0892 20.0497 32.0676 20.3128 32.1016 20.5717L33.9349 34.3217C33.9662 34.5624 34.0446 34.7947 34.1656 35.0051C34.2867 35.2156 34.448 35.4001 34.6404 35.5482C34.8328 35.6963 35.0524 35.8051 35.2868 35.8683C35.5212 35.9315 35.7658 35.948 36.0066 35.9167C36.2473 35.8854 36.4795 35.807 36.69 35.6859C36.9005 35.5649 37.085 35.4035 37.2331 35.2112C37.3812 35.0188 37.49 34.7991 37.5532 34.5647C37.6164 34.3303 37.6329 34.0858 37.6016 33.845L36.1166 22.68C36.1062 22.6174 36.1107 22.5532 36.1299 22.4927C36.149 22.4321 36.1821 22.377 36.2266 22.3317C36.265 22.2849 36.3124 22.2463 36.3659 22.218C36.4194 22.1897 36.478 22.1722 36.5382 22.1667H47.6666C47.7338 22.1629 47.8009 22.176 47.8617 22.2049C47.9225 22.2337 47.9752 22.2773 48.0149 22.3317C48.0597 22.3806 48.0928 22.4389 48.1119 22.5024C48.1309 22.5659 48.1354 22.6329 48.1249 22.6983L46.1266 34.7433C46.0463 35.2296 46.1625 35.7277 46.4496 36.1283C46.7367 36.5288 47.1712 36.7989 47.6574 36.8792C47.8981 36.9189 48.1444 36.9108 48.382 36.8554C48.6196 36.7999 48.844 36.6982 49.0424 36.5561C49.4429 36.269 49.713 35.8346 49.7932 35.3483L52.2499 20.6817C52.2978 20.4084 52.2832 20.1278 52.2069 19.8611C52.1307 19.5943 51.995 19.3483 51.8099 19.1417Z" fill="#509E86"/>
<path d="M45.8333 38.6666H34.8333C34.748 38.6696 34.6638 38.6468 34.5918 38.6009C34.5198 38.5551 34.4633 38.4885 34.43 38.4099L32.67 34.9999C32.6035 34.8612 32.5031 34.7415 32.3781 34.6518C32.2532 34.5621 32.1077 34.5053 31.955 34.4866C31.8009 34.4688 31.6448 34.4897 31.5008 34.5473C31.3568 34.6049 31.2293 34.6975 31.13 34.8166L27.6833 39.0516C27.3998 39.3521 27.0138 39.5353 26.6017 39.5649H24.7683C24.6449 39.5624 24.5222 39.5849 24.4076 39.631C24.293 39.6771 24.189 39.7459 24.1016 39.8332C24.0143 39.9205 23.9455 40.0246 23.8994 40.1392C23.8533 40.2537 23.8308 40.3764 23.8333 40.4999V51.4999C23.8303 51.6427 23.8622 51.7841 23.926 51.9119C23.9899 52.0396 24.084 52.1499 24.2 52.2332C28.4167 55.4049 31.68 56.9999 33.9167 56.9999H44.0917C44.8899 57.135 45.7094 56.9541 46.3767 56.4956C47.0439 56.037 47.5066 55.3369 47.6667 54.5432C48.5599 50.2117 49.1723 45.827 49.5 41.4166C49.5 40.0416 48.235 38.6666 45.8333 38.6666ZM19.855 37.7499H14.2083C14.0868 37.7499 13.9702 37.7982 13.8842 37.8841C13.7983 37.9701 13.75 38.0867 13.75 38.2082V54.7082C13.75 54.8298 13.7983 54.9464 13.8842 55.0323C13.9702 55.1183 14.0868 55.1666 14.2083 55.1666H19.855C20.0083 55.1846 20.1637 55.1701 20.3111 55.1241C20.4585 55.0782 20.5945 55.0017 20.7104 54.8996C20.8262 54.7976 20.9193 54.6723 20.9836 54.532C21.0478 54.3916 21.0818 54.2393 21.0833 54.0849V38.8316C21.0818 38.6772 21.0478 38.5249 20.9836 38.3845C20.9193 38.2441 20.8262 38.1189 20.7104 38.0168C20.5945 37.9148 20.4585 37.8383 20.3111 37.7923C20.1637 37.7463 20.0083 37.7319 19.855 37.7499ZM39.4167 29.4999C39.4167 30.2293 39.7064 30.9287 40.2221 31.4445C40.7378 31.9602 41.4373 32.2499 42.1667 32.2499C42.896 32.2499 43.5955 31.9602 44.1112 31.4445C44.6269 30.9287 44.9167 30.2293 44.9167 29.4999C44.9167 28.7706 44.6269 28.0711 44.1112 27.5554C43.5955 27.0396 42.896 26.7499 42.1667 26.7499C41.4373 26.7499 40.7378 27.0396 40.2221 27.5554C39.7064 28.0711 39.4167 28.7706 39.4167 29.4999ZM29.3333 33.1666C29.6009 33.17 29.866 33.1149 30.1099 33.005C30.3539 32.8951 30.5709 32.7331 30.7456 32.5304C30.9203 32.3278 31.0485 32.0893 31.1213 31.8318C31.194 31.5743 31.2095 31.304 31.1667 31.0399L28.8383 17.1982C28.7932 17.0802 28.7932 16.9496 28.8383 16.8316C28.8943 16.757 28.9716 16.7012 29.0601 16.6718C29.1485 16.6423 29.2438 16.6405 29.3333 16.6666H44C44.4862 16.6666 44.9525 16.4734 45.2964 16.1296C45.6402 15.7858 45.8333 15.3195 45.8333 14.8332C45.8333 14.347 45.6402 13.8807 45.2964 13.5369C44.9525 13.1931 44.4862 12.9999 44 12.9999H26.5833C26.3158 12.9965 26.0507 13.0516 25.8067 13.1615C25.5628 13.2714 25.3458 13.4334 25.1711 13.636C24.9964 13.8387 24.8682 14.0772 24.7954 14.3346C24.7227 14.5921 24.7072 14.8624 24.75 15.1266L27.5 31.6266C27.5703 32.0604 27.794 32.4545 28.1306 32.7372C28.4671 33.0198 28.8939 33.1722 29.3333 33.1666Z" fill="#509E86"/>
</g>
<defs>
<clipPath id="clip0_702_598">
<rect width="44" height="44" fill="white" transform="translate(11 13)"/>
</clipPath>
</defs>
</svg>
